<?xml version="1.0" standalone="no"?>
<!DOCTYPE svg PUBLIC "-//W3C//DTD SVG 1.1//EN" "http://www.w3.org/Graphics/SVG/1.1/DTD/svg11.dtd" >
<svg xmlns="http://www.w3.org/2000/svg">
<metadata>
This is a custom SVG webfont generated by Font Squirrel.
Copyright   : Imperator Bold C Copyright PJL 96
</metadata>
<defs>
<font id="webfonth3Ykod2e" horiz-adv-x="729" >
<font-face units-per-em="2048" ascent="1638" descent="-410" />
<missing-glyph horiz-adv-x="1024" />
<glyph unicode=" "  horiz-adv-x="1024" />
<glyph unicode="&#x09;" horiz-adv-x="1024" />
<glyph unicode="&#xa0;" horiz-adv-x="1024" />
<glyph unicode="!" horiz-adv-x="419" d="M41 147q0 -55 38 -99t107 -44q70 0 131.5 46t61.5 95q0 61 -27.5 99.5t-101.5 38.5q-33 0 -70 -11.5t-68.5 -31t-51 -44t-19.5 -49.5zM88 1290q0 -219 9 -392t22 -339q10 -125 10 -160q0 -18 22.5 -36.5t57.5 -18.5t60.5 21.5t25.5 42.5q0 33 12 143q16 174 27.5 344 t11.5 395q0 145 -2 208t-12 95.5t-31.5 43t-67.5 10.5q-51 0 -81.5 -31t-44 -81t-16.5 -105.5t-3 -139.5z" />
<glyph unicode="&#x22;" horiz-adv-x="643" d="M41 1708l12 -170q4 -41 36 -72.5t89 -31.5q51 0 87 29.5t40 64.5l14 178q-55 -12 -87.5 -16t-53.5 -4q-25 0 -54.5 4t-82.5 18zM324 1708l12 -170q4 -41 37 -72.5t90 -31.5q51 0 86 30.5t39 63.5l14 178q-55 -12 -87 -16t-52 -4q-27 0 -56.5 4t-82.5 18z" />
<glyph unicode="$" horiz-adv-x="806" d="M41 80q0 -35 69.5 -57.5t163.5 -32.5l-14 -152h162l16 152q61 10 118.5 33.5t105 61.5t75 95.5t27.5 128.5q0 59 -25.5 107.5t-64.5 82t-82 58.5t-92 45l28 272q16 -8 37 -24q10 -6 33 -33q25 -29 45.5 -44t44.5 -15q31 0 42 10t11 25v137q0 35 -61.5 60.5t-136.5 33.5 l18 180h-162l-20 -188q-152 -23 -235 -106t-83 -187q0 -61 26 -110.5t64.5 -83t78.5 -55t89 -42.5l-30 -299q-41 16 -82 51q-6 6 -19 27q-18 33 -36.5 52.5t-45.5 19.5q-20 0 -39.5 -12.5t-19.5 -20.5q0 -33 -2 -86q-4 -61 -4 -84zM313 780q0 70 52 107l-21 -193 q-31 37 -31 86zM453 131l20 211q41 -41 41 -104q0 -37 -17 -65t-44 -42z" />
<glyph unicode="%" horiz-adv-x="1314" d="M41 1233q0 -90 19.5 -170t60.5 -143.5t107.5 -100.5t156.5 -37q131 0 227 78l-542 -862h141l346 547q-12 -51 -12 -111q0 -90 19.5 -170t60.5 -143.5t107.5 -100t156.5 -36.5q86 0 157.5 32.5t122 91t78 135t27.5 160.5q0 86 -25.5 166t-73 144.5t-113 101.5t-140.5 37 q-119 0 -211 -66l538 856h-108q-49 0 -92 -9t-99 -27q-80 -25 -116 -25q-63 0 -181 31q-68 18 -120 28.5t-115 10.5q-172 0 -274.5 -121t-102.5 -297zM295 1286q0 139 22.5 198.5t77.5 59.5q31 0 55.5 -31.5t41 -88t24.5 -125t8 -136.5q0 -270 -116 -270q-27 0 -49.5 34 t-36 91t-20.5 125.5t-7 142.5zM680 1505q66 -6 135 -6q49 0 91 11.5t98 31.5l53 19l-301 -476q14 55 14 119q0 164 -90 301zM799 487q0 139 22.5 197.5t77.5 58.5q31 0 55.5 -31.5t41 -87t24.5 -124t8 -135.5q0 -272 -119 -273q-27 0 -48 34t-34.5 92t-20.5 126.5t-7 142.5z " />
<glyph unicode="&#x26;" horiz-adv-x="1722" d="M41 373q0 -70 43 -140.5t113.5 -127t152.5 -90t158 -33.5q111 0 219.5 63.5t202.5 153.5q80 -100 206 -157.5t259 -57.5q39 0 81 12t85 33q72 35 120 77l-47 74q-68 -45 -118 -57t-119 -12q-66 0 -121 50t-148 193l-22 37q72 84 131 175t100 182q43 96 112 152t165 95 l12 27q-45 -2 -127 -8q-96 -6 -135 -6q-51 0 -105.5 4t-134.5 12l-12 -33q55 -12 75.5 -37.5t20.5 -70.5q0 -33 -8 -71t-18 -56q-80 -168 -144 -250l-250 430q66 29 131.5 75t120 103t86 120.5t31.5 125.5q0 66 -29.5 119t-80 90t-109.5 56.5t-119 19.5q-115 0 -196.5 -37 t-130 -96.5t-70 -125t-21.5 -124.5q0 -72 17.5 -131.5t58.5 -133.5l49 -92q-229 -102 -357 -234t-128 -298zM348 461q0 121 61.5 219t161.5 151l297 -532q-82 -70 -156.5 -92.5t-174.5 -22.5q-37 0 -71 26t-60.5 66.5t-42 90t-15.5 94.5zM625 1323q0 33 14 71t40 71.5 t56.5 55t63.5 21.5q37 0 61.5 -5t45 -21.5t32.5 -53.5t12 -98q0 -102 -58 -199.5t-147 -154.5l-73 123q-25 41 -36 84t-11 106z" />
<glyph unicode="'" horiz-adv-x="362" d="M41 1708l14 -170q4 -41 36 -72.5t89 -31.5q51 0 86 30.5t39 63.5l17 178q-55 -12 -88 -16t-54 -4q-27 0 -56.5 4t-82.5 18z" />
<glyph unicode="(" horiz-adv-x="458" d="M41 891q0 -213 59.5 -442.5t165.5 -489.5h152q-78 205 -105.5 433.5t-27.5 498.5q0 254 26.5 458.5t106.5 391.5h-152q-106 -236 -165.5 -445.5t-59.5 -404.5z" />
<glyph unicode=")" horiz-adv-x="458" d="M41 -41h152q106 262 165.5 490.5t59.5 441.5q0 193 -59.5 402.5t-165.5 447.5h-152q80 -186 106.5 -391t26.5 -459q0 -270 -27.5 -498.5t-105.5 -433.5z" />
<glyph unicode="*" horiz-adv-x="370" d="M43 1618q0 -18 33 -53q-31 -31 -31 -52q0 -6 4 -12q8 -14 68 -14q8 -20 24.5 -35.5t42.5 -15.5q27 0 43.5 13t22.5 34q61 0 72 16q4 6 4 12q0 16 -37 54q41 35 41 55q0 6 -4 12q-10 16 -54 17l-10 -2h-10q-6 23 -23.5 38t-44.5 15t-43 -16.5t-24 -38.5h-11q-4 2 -8 2 q-43 0 -53 -17q0 -2 -2 -6v-6z" />
<glyph unicode="," horiz-adv-x="411" d="M41 131q0 -53 37 -96t104 -43h19q4 -27 4 -80q0 -43 -29 -92l88 -49q66 39 86.5 113.5t20.5 185.5q0 31 -5.5 62.5t-19.5 61t-39.5 49t-62.5 19.5q-31 0 -67 -11t-67.5 -30.5t-50 -43t-18.5 -46.5z" />
<glyph unicode="-" d="M41 573h647v105h-647v-105z" />
<glyph unicode="." horiz-adv-x="399" d="M41 135q0 -51 36 -93t101 -42q66 0 123 43t57 90q0 57 -25.5 93t-94.5 36q-31 0 -66 -11t-63 -30q-68 -41 -68 -86z" />
<glyph unicode="/" horiz-adv-x="641" d="M41 -2h133l426 1649h-133z" />
<glyph unicode="0" horiz-adv-x="1374" d="M41 815q0 -180 30.5 -330.5t102.5 -264.5t192.5 -178.5t292.5 -64.5q164 0 291 64.5t212 180.5t128 267.5t43 325.5q0 184 -28.5 336t-97 268.5t-188.5 182t-294 65.5q-152 0 -280 -67.5t-218 -185.5t-138 -272.5t-48 -326.5zM379 811q0 158 19.5 294t60.5 238.5 t102.5 159t143.5 56.5q100 0 162.5 -55.5t94 -156t42 -228.5t10.5 -304q0 -156 -22.5 -290t-64.5 -234.5t-102.5 -156.5t-136.5 -56q-92 0 -152.5 54t-95 153.5t-48 230.5t-13.5 295z" />
<glyph unicode="1" horiz-adv-x="669" d="M41 1348q0 -4 15.5 -13.5t37.5 -9.5q16 2 32.5 9t37.5 18q16 8 18 8q6 0 13.5 -20.5t13.5 -53.5l11 -62q5 -30 5 -50q4 -63 6 -136t2 -219q0 -408 -4 -612q-2 -66 -32.5 -110t-85.5 -72v-29q86 8 142 11t107 3q53 0 114 -3t155 -11v29q-115 55 -121 194q-16 322 -16 606 q0 98 6 340q6 201 6 277q0 41 -3 74.5t-12.5 65.5t-28 50.5t-46.5 18.5q-25 0 -55.5 -24.5t-77.5 -72.5q-41 -41 -60 -57q-37 -29 -108 -70q-72 -39 -72 -55v-24z" />
<glyph unicode="2" horiz-adv-x="1208" d="M41 1294q0 -61 57.5 -114.5t132.5 -53.5q72 0 133.5 43t61.5 125q0 59 -22.5 86t-59.5 45q-37 16 -37 35q0 39 53.5 59.5t114.5 20.5q86 0 141.5 -36t83 -92t38 -116.5t10.5 -121.5q0 -111 -37 -220.5t-98.5 -211t-130.5 -188.5l-177 -216q-156 -184 -221 -277 q-8 -12 -8 -22q0 -16 19.5 -27.5t45.5 -11.5h807q55 0 103.5 25.5t62.5 60.5l12 33q20 53 30.5 90t10.5 63q0 8 -15 22.5t-42 14.5q-18 0 -40.5 -16.5t-57.5 -48.5q-41 -39 -62 -54q-98 -70 -149 -69h-451q55 86 122 168l173 205l173 205q67 83 125 174.5t93 185.5t35 188 q0 74 -33.5 147.5t-97 134t-156 96.5t-202.5 36q-129 0 -231.5 -39t-171 -97.5t-103.5 -121t-35 -109.5z" />
<glyph unicode="3" horiz-adv-x="1263" d="M41 305q0 -66 40 -126t110.5 -107t160.5 -73t187 -26q158 0 286.5 51.5t216.5 137.5t134.5 191.5t46.5 213.5q0 63 -20.5 128t-63.5 121t-109.5 96t-157.5 53l31 22q127 96 172 154q37 45 56.5 96t19.5 115q0 133 -120 222t-339 89q-84 0 -186.5 -26.5t-193.5 -68.5 t-149.5 -87t-58.5 -80q0 -12 14.5 -25.5t45.5 -13.5q27 0 102 41q92 51 175 80.5t198 29.5q74 0 126 -75.5t52 -161.5q0 -74 -33.5 -144.5t-89.5 -113.5q-35 -27 -71.5 -45.5t-92.5 -40.5q-51 -23 -75 -35q-53 -31 -82 -63.5t-29 -55.5q0 -6 22.5 -14t43.5 -8h12q6 2 8 2 q10 2 33 14q37 23 77 35t107 12q61 0 109.5 -28.5t82 -76.5t51 -104.5t17.5 -113.5q0 -80 -12 -148.5t-51 -132t-119 -102.5t-211 -39q-37 0 -79 15t-79 40t-59.5 50.5t-22.5 45.5q0 4 11 4h14q16 -2 25 -2q43 0 71.5 33t28.5 127q0 45 -37 82t-125 37q-100 0 -160.5 -58.5 t-60.5 -142.5z" />
<glyph unicode="4" horiz-adv-x="1374" d="M43 498q0 -25 31.5 -41.5t60.5 -16.5h664q0 -82 -4 -233q-2 -66 -32 -111t-85 -71v-29q84 8 141.5 11t108.5 3q53 0 113.5 -3t154.5 -11v29q-115 53 -121 194q-8 137 -10 221h49q57 0 104.5 26t61.5 62l10 27q23 59 33 95t10 65q0 8 -15 21.5t-42 13.5q-18 0 -41 -16.5 t-57 -51.5q-41 -37 -60 -51q-10 -6 -26 -19q-20 -14 -31 -20q-2 78 -2 233v750q0 23 -26.5 40t-69.5 17h-123q-41 0 -58.5 -11t-31.5 -34l-703 -1073q-4 -8 -4 -16zM279 563l520 778v-778h-520z" />
<glyph unicode="5" horiz-adv-x="1361" d="M41 324q0 -104 57.5 -175t141.5 -109t164.5 -52.5t140.5 -14.5q152 0 271.5 53.5t200.5 142.5t122 196.5t41 214.5q0 119 -50.5 212t-134.5 155.5t-183 93t-198 30.5q-109 0 -186 -27l180 469h451q45 0 71.5 -22.5t57.5 -63.5q23 -33 39 -48t39 -15q31 0 43 14.5t12 28.5 v176q0 18 -23.5 41t-58.5 23h-704q-41 0 -67 -24t-34 -44l-289 -764q0 -18 26 -31.5t50 -13.5q16 0 70 27q59 29 108.5 46t102.5 17q72 0 140.5 -22.5t126.5 -71.5t93 -128t35 -187q0 -154 -94 -260.5t-262 -106.5q-31 0 -75 10t-86 27.5t-69.5 40t-27.5 45.5q0 6 16 14 q23 8 35 17q37 25 54.5 57.5t17.5 62.5q0 66 -54.5 108t-120.5 42q-90 0 -140 -60.5t-50 -123.5z" />
<glyph unicode="6" horiz-adv-x="1277" d="M41 725q0 -360 155.5 -558t456.5 -198q147 0 258 49.5t183.5 133.5t107.5 190.5t35 220.5q0 113 -36 210t-104.5 170t-167 113t-218.5 40q-113 0 -194 -34t-142 -91q4 98 30.5 199.5t74.5 187.5t120 139t164 53q57 0 94 -11t37 -44q0 -2 -14 -6q-35 -10 -60.5 -36 t-25.5 -93q0 -41 52 -86t120 -45q33 0 65.5 14t59 39t42 52.5t15.5 49.5q0 68 -37 119t-95.5 83t-126 47.5t-126.5 15.5q-164 0 -299 -83t-230.5 -221.5t-144.5 -302t-49 -317.5zM383 532q0 199 85 326t218 127q104 0 172 -126t68 -327q0 -96 -23.5 -183t-64.5 -152.5 t-92.5 -101.5t-104.5 -36q-51 0 -98 36t-83 100.5t-56.5 151.5t-20.5 185z" />
<glyph unicode="7" horiz-adv-x="1202" d="M41 1395q0 -12 19.5 -27.5t43.5 -15.5q37 0 64 19.5t61 55.5q35 41 65 61.5t71 20.5h503q-270 -346 -419.5 -678.5t-149.5 -666.5q0 -72 13.5 -118t58.5 -46h174q23 0 37 17.5t21 44t8 51t1 55.5q0 193 20.5 371t76 358t162 353t272.5 321q14 16 16 18l2 2 q0 12 -30.5 31.5t-63.5 19.5h-881q-35 0 -59.5 -23.5t-24.5 -39.5q0 -39 -34 -106q-27 -53 -27 -78z" />
<glyph unicode="8" horiz-adv-x="1277" d="M41 401q0 -94 27.5 -168.5t95 -132t182.5 -89t283 -31.5q119 0 229.5 41.5t196.5 113.5t134 160t48 176q0 137 -110.5 257t-278.5 187q78 35 133 67t103.5 73t78 95t29.5 120q0 180 -131 284.5t-356 104.5q-113 0 -219.5 -28.5t-192.5 -85t-135 -141.5t-49 -194 q0 -106 71.5 -213.5t194.5 -175.5q-152 -63 -243 -178t-91 -242zM313 424q0 76 21.5 137.5t51.5 103.5t58.5 64.5t38.5 22.5q68 0 152 -31t159.5 -84t123 -123t47.5 -145q0 -76 -33 -133.5t-87 -94.5t-123 -54t-140 -17q-125 0 -197 96t-72 258zM391 1321q0 127 85 187.5 t214 60.5q109 0 177.5 -79t68.5 -214q0 -66 -20.5 -121t-52.5 -96t-66.5 -62.5t-59.5 -21.5q-55 0 -115.5 28.5t-113.5 77.5t-85 111.5t-32 128.5z" />
<glyph unicode="9" horiz-adv-x="1277" d="M41 1053q0 -113 36 -210.5t104.5 -170t166.5 -112.5t219 -40q113 0 194 34t142 91q-4 -98 -30.5 -199.5t-74.5 -187.5t-120 -139t-164 -53q-57 0 -94 11t-37 44q0 2 14 6q35 10 60.5 35.5t25.5 93.5q0 41 -52 86t-120 45q-33 0 -65.5 -14.5t-59 -39t-42 -52t-15.5 -50.5 q0 -68 37 -119t95 -82.5t126 -47t127 -15.5q164 0 299 83t230.5 222.5t144.5 302t49 316.5q0 360 -155.5 558t-456.5 198q-147 0 -258 -49.5t-183.5 -133.5t-107.5 -190t-35 -221zM352 1083q0 96 23.5 183.5t64.5 153t92.5 101t104.5 35.5q51 0 98 -35.5t83 -100 t56.5 -151.5t20.5 -186q0 -199 -85 -325.5t-218 -126.5q-104 0 -172 125.5t-68 326.5z" />
<glyph unicode=":" horiz-adv-x="415" d="M41 143q0 -55 36 -99t107 -44q70 0 130.5 46t60.5 95q0 59 -28 97t-99 38q-33 0 -69 -11t-67.5 -30.5t-51 -43t-19.5 -48.5zM41 827q0 -55 36 -98t107 -43q68 0 129.5 45t61.5 94q0 59 -28 98.5t-99 39.5q-33 0 -69 -11.5t-67.5 -31t-51 -44t-19.5 -49.5z" />
<glyph unicode=";" horiz-adv-x="419" d="M41 139q0 -55 38 -99t107 -44h19q4 -27 4 -80q0 -51 -31 -94l92 -51q66 41 87.5 116.5t21.5 190.5q0 31 -5 63.5t-19.5 62t-40 50t-64.5 20.5q-33 0 -70 -11t-68.5 -31.5t-51 -45t-19.5 -47.5zM41 827q0 -55 38 -99t107 -44q68 0 130.5 46t62.5 95q0 61 -27.5 99.5 t-101.5 38.5q-33 0 -70 -11.5t-68.5 -31t-51 -44t-19.5 -49.5z" />
<glyph unicode="?" horiz-adv-x="1202" d="M41 143q0 -55 38 -99t109 -44q68 0 129.5 46t61.5 95q0 61 -27.5 99.5t-101.5 38.5q-33 0 -69 -11.5t-68.5 -31t-52 -44t-19.5 -49.5zM43 1360q0 -14 18.5 -32.5t51.5 -18.5q29 0 96 59q76 68 151.5 108t190.5 40q51 0 102.5 -14.5t94.5 -46.5t68.5 -83t25.5 -121 q0 -86 -22.5 -147.5t-61.5 -104.5t-85 -73.5t-124 -71.5l-14 -8q-88 -49 -148.5 -89t-114 -93.5t-86 -119t-32.5 -145.5q0 -18 23.5 -36.5t55.5 -18.5q35 0 62 21.5t27 42.5q0 61 29.5 110t78.5 87t105.5 66.5t154.5 71.5q115 53 187.5 92t138 93.5t105.5 131.5t40 175 q0 117 -44 199t-116.5 128t-157.5 65.5t-171 19.5q-150 0 -290 -45.5t-222 -108.5q-8 -6 -10 -8q-51 -41 -79 -69.5t-28 -55.5z" />
<glyph unicode="@" horiz-adv-x="1761" d="M41 854q0 -170 64.5 -323.5t180 -273.5t269.5 -186.5t326 -66.5q123 0 237.5 28.5t186.5 86.5q43 35 43 55q0 18 -27 27.5t-61 9.5q-43 0 -58 -10q-23 -14 -61.5 -32.5t-84.5 -36t-92 -28t-83 -10.5q-109 0 -208.5 57.5t-176 162t-119.5 243.5t-43 297t43 297 t119.5 243.5t176 162t208.5 57.5t208 -57.5t175.5 -162t119.5 -243.5t43 -297q0 -152 -36 -266q-8 -25 -22.5 -59.5t-31 -65.5t-30 -50.5t-21.5 -19.5q-51 0 -57 154q-14 272 -17 493v76q0 84 -22.5 135.5t-61 77t-86 32.5t-110.5 7q-80 0 -158 -20.5t-133 -55.5 q-74 -43 -115 -92t-41 -100q0 -47 93 -94q16 -10 43.5 -18.5t58.5 -8.5q29 0 62.5 18.5t33.5 34.5q0 10 -6 33q-6 31 -6 45q0 57 44 107.5t89 50.5q20 0 38.5 -35t18.5 -96v-181q-49 -29 -174 -71q-84 -29 -135 -50.5t-97 -55.5t-75 -82t-29 -113q0 -49 26 -94.5t71 -81 t101 -56t116 -20.5q49 0 108.5 20.5t112.5 50.5q29 -39 70 -61.5t90 -32.5t93 -12t107 -2q88 0 161 46t122 128q23 27 53 115q45 145 45 270q0 170 -64.5 324.5t-180 273.5t-269 185.5t-325.5 66.5t-326 -66.5t-269.5 -185.5t-180 -273.5t-64.5 -324.5zM733 625 q0 61 56.5 105t164.5 99q0 -188 -2 -270q-59 -76 -110 -80q-49 0 -79 45.5t-30 100.5z" />
<glyph unicode="A" horiz-adv-x="1804" d="M41 -8q82 12 133 16t98 4q41 0 88.5 -4t116.5 -14v24q-37 35 -37 82q0 23 4.5 40.5t18.5 49.5v3l180 466q100 10 242 11q100 0 229 -11l158 -430q4 -8 9 -31.5t5 -43.5q0 -31 -39 -82q-27 -35 -26 -49v-29q90 14 153.5 19t126.5 5q53 0 115.5 -6t146.5 -20v33 q-66 29 -109.5 78t-74.5 128l-487 1221l-99 244h-88q-129 0 -287 14l9 -24q70 -49 111.5 -109.5t41.5 -122.5q0 -20 -4 -29l-487 -1183q-37 -88 -91.5 -139.5t-129.5 -77.5zM696 770v6l193 475l180 -475v-6q-127 -4 -188 -4q-62 0 -185 4z" />
<glyph unicode="B" horiz-adv-x="1353" d="M41 -4q152 14 274 14q33 0 156 -2q172 -4 229 -4q119 0 214.5 13.5t160.5 54.5q115 72 176.5 184.5t61.5 214.5q0 100 -43 189.5t-135 158.5q-41 33 -109 60.5t-152 50.5q102 70 165 164t65 211q0 98 -43 171.5t-109.5 119.5t-137.5 68t-128 22l-115 -3q-166 -4 -260 -4 q-88 0 -264 17v-31q72 -39 96.5 -90t28.5 -125q8 -152 12 -313.5t4 -317.5q0 -193 -1 -308.5t-9 -256.5q-2 -66 -44 -134.5t-93 -92.5v-31zM444 844q41 0 117 -4q45 -2 55 -2q106 0 186.5 -34t131.5 -92.5t75.5 -134t24.5 -159.5q0 -66 -18.5 -127.5t-61.5 -97.5 q-90 -82 -241 -82q-88 0 -137.5 6t-77 24.5t-37.5 50t-10 91.5v59q0 92 -2 254q-5 182 -5 248zM451 1292q0 96 4 150q2 16 2 49q0 66 10 90h6q72 8 105 8q51 0 96 -12t82 -44t58.5 -88t21.5 -140q0 -96 -19.5 -165t-51.5 -109t-69 -57.5t-75 -17.5q-20 0 -91 5q-72 2 -73 2 q0 66 -4 176q-2 102 -2 153z" />
<glyph unicode="C" horiz-adv-x="1701" d="M41 844q0 -172 68.5 -330t191.5 -278.5t286 -188t345 -67.5q162 0 298 26.5t257 85.5q74 33 94 82q6 14 23 47q27 53 42 89t15 46q-2 6 -14.5 14.5t-36.5 8.5q-20 0 -39 -16.5t-43 -47.5q-16 -23 -27 -30q-90 -88 -250 -135q-70 -20 -138.5 -29.5t-131.5 -9.5 q-127 0 -245 62.5t-208 173t-142 253.5t-52 297q0 156 46 287t134 227t213 148.5t279 52.5q88 0 163.5 -16.5t147.5 -51.5q37 -18 64.5 -47t62.5 -72q31 -37 48 -54t38 -17q33 0 44 14t11 31q0 25 -4 76q-6 70 -6 98q0 51 -10.5 77.5t-46.5 26.5q-25 0 -38.5 -4t-13.5 -8 q-29 0 -102 16q-39 8 -43 9q-96 18 -188.5 29.5t-167.5 11.5q-203 0 -374 -71t-294 -196t-189.5 -285.5t-66.5 -334.5z" />
<glyph unicode="D" horiz-adv-x="1853" d="M41 1679q158 -104 164 -225q8 -152 12 -313.5t4 -317.5v-291q0 -186 -2 -288q-2 -63 -49 -124t-104 -89v-31q80 8 152.5 11t129.5 3q72 0 221 -10q160 -10 230 -10q225 2 412.5 72.5t322.5 198.5t206.5 299t71.5 368q0 168 -70.5 311t-196.5 247.5t-293 160t-351 55.5 q-88 0 -152 -3l-157 -7q-78 -6 -132 -8t-116 -2q-57 0 -140 4t-163 12v-23zM481 829v244q0 129 1 213t7 162q0 10 3 29q2 51 6 82q27 16 132 22t271 6q133 0 241.5 -40t196.5 -134q84 -92 134.5 -246.5t50.5 -312.5q0 -152 -48.5 -287t-135.5 -235.5t-200.5 -155.5 t-238.5 -55q-170 0 -262 13t-139 50v21q-2 14 -2 18q-17 321 -17 606z" />
<glyph unicode="E" horiz-adv-x="1366" d="M41 1710l6 -35q78 -39 115 -95t41 -124q8 -152 12 -313.5t4 -317.5v-287q0 -101 -4 -257q-2 -63 -51 -140q-23 -35 -48.5 -60.5t-49.5 -39.5v-45q23 2 32 2q94 10 150.5 14t97.5 4h182q98 -2 226 -2h305q90 0 118.5 22.5t39.5 61.5l2 4q12 47 63 136q43 76 43 100 q0 6 -16.5 17.5t-40.5 11.5q-25 0 -49.5 -22.5t-65.5 -70.5q-55 -66 -86 -90q-55 -45 -112.5 -57t-145.5 -12q-59 0 -110.5 6t-97.5 24.5t-75.5 52t-31.5 85.5q-8 170 -12.5 285.5t-4.5 258.5q199 0 291 -8q72 -6 123 -28.5t82 -81.5h88q-4 66 -4 87v76q0 51 8 119 q4 35 6 64h-86q-47 -72 -91 -93.5t-110 -23.5q-31 -2 -92 -2q-68 0 -215 4v145q0 250 8 365q2 20 4 47q2 66 9 88l65 6q104 8 148 8q143 0 210.5 -26.5t100.5 -75.5q2 -2 8 -12q10 -23 23.5 -35t44.5 -12q25 0 38 10t13 16q0 27 -6 74q-10 63 -10 115q0 18 -25 29.5 t-61.5 16.5t-71.5 6t-80 1q-63 0 -215 -10q-20 -2 -59 -4q-80 -4 -136.5 -6.5t-89.5 -2.5q-43 0 -122.5 6.5t-198.5 18.5z" />
<glyph unicode="F" horiz-adv-x="1191" d="M41 1718l6 -35q80 -39 116 -94t40 -125q8 -152 12 -313.5t4 -316.5q0 -156 -2 -294.5t-6 -332.5q-2 -66 -31.5 -111t-85.5 -71v-29q84 8 140.5 11t107.5 3q55 0 115.5 -3t154.5 -11v29q-115 53 -120 194q-8 139 -12.5 311t-4.5 330h47h148q70 0 100 -2q72 -6 114 -24.5 t72 -77.5l101 -8q-4 63 -6 110l-2 41v33v-33q0 20 -2 41v16v9q2 0 2 -33q2 23 6 63q6 37 8 70h-90q-41 -61 -75 -75.5t-97 -18.5h-19q-23 -2 -65 -2q-41 0 -131 4q-63 4 -101 4q0 53 -2 153q-2 96 -2 144q0 90 6 182q2 14 5 47q2 66 8 90l67 6q102 8 144 9q143 0 211.5 -27 t101.5 -76q2 -2 6 -12q10 -20 23.5 -33.5t44.5 -13.5q25 0 39 10t14 17q0 27 -6 73q-10 63 -10 115q0 18 -25 29.5t-61.5 16.5t-72.5 6t-81 1q-68 0 -219 -10l-53 -4l-145 -6q-50 -2 -83 -2q-41 0 -126 7l-183 15z" />
<glyph unicode="G" horiz-adv-x="1748" d="M41 844q0 -172 68.5 -330t191.5 -278.5t286 -188t345 -67.5q281 0 473 77q23 8 70 23q68 20 92 33q25 12 34 33.5t9 41.5q0 135 1 209t7 170l2 27q4 84 19.5 136t64.5 77l4 24q-63 -4 -137 -10q-63 -6 -96 -6q-51 0 -108.5 4t-149.5 12v-24q70 -45 90 -90t26 -142 q4 -57 6 -192q2 -33 2 -66v-2q-2 -55 -7 -84.5t-19 -35.5q-119 -45 -209 -72t-150 -27q-125 0 -238.5 64.5t-200.5 177.5t-135 258t-48 301t47 287t135 227t213 148.5t277 52.5q84 0 154.5 -16.5t148.5 -55.5q37 -18 67.5 -51t69.5 -84q33 -41 52.5 -61.5t37.5 -20.5 q33 0 44 25.5t11 50.5q0 23 -2 69q-4 61 -4 93q0 20 2 47v20q0 8 -11 15.5t-38 7.5q-12 0 -37 -2q-20 -4 -39 -4q-14 0 -51 16q-51 20 -90 29q-96 18 -188.5 29.5t-167.5 11.5q-203 0 -374 -71t-294 -196t-189.5 -285.5t-66.5 -334.5z" />
<glyph unicode="H" horiz-adv-x="1759" d="M41 1683q68 -45 90.5 -99t26.5 -134q8 -152 12 -313.5t4 -317.5q0 -408 -4 -612q-2 -66 -33 -110t-84 -72v-29q84 8 140.5 11t107.5 3q55 0 115.5 -3t154.5 -11v29q-117 55 -120 194q-16 324 -17 606v6q221 6 453 7q213 0 434 -7v-10q0 -408 -4 -612q-2 -66 -32 -111 t-85 -71v-29q84 8 141.5 11t108.5 3q53 0 113.5 -3t154.5 -11v29q-115 55 -121 194q-16 324 -16 606v244q0 129 1 213t7 162q6 80 31 144.5t80 92.5v25q-43 -2 -123 -8q-92 -6 -131 -6q-51 0 -106.5 4t-151.5 12v-24q70 -45 92.5 -100.5t24.5 -133.5q14 -266 16 -504 q-217 -6 -434 -6q-254 0 -453 8v142q0 240 8 352q6 82 30 145.5t81 91.5v25q-55 -2 -121 -8q-98 -6 -135 -6q-51 0 -107.5 4t-148.5 12v-25z" />
<glyph unicode="I" horiz-adv-x="610" d="M41 1683q68 -45 90.5 -101t26.5 -132q8 -152 12 -313.5t4 -317.5q0 -408 -4 -612q-2 -66 -33 -110t-86 -72v-29q86 8 142.5 11t107.5 3q55 0 113.5 -3t154.5 -11v29q-115 55 -120 194q-16 324 -17 606v244q0 129 1 213t7 162q6 80 31 144.5t82 92.5v25q-45 -2 -125 -8 q-92 -6 -131 -6q-51 0 -106.5 4t-149.5 12v-25z" />
<glyph unicode="J" horiz-adv-x="821" d="M41 -254q0 -12 29.5 -20.5t52.5 -8.5q53 0 99 15.5t108 44.5q94 43 162.5 97t103.5 130q51 111 65.5 260.5t14.5 394.5v515q0 193 6 284q6 92 24.5 153.5t73.5 90.5v24q-61 -4 -141 -12q-70 -6 -102 -6q-49 0 -122 5t-169 13v-26q145 -100 151 -234q8 -152 12.5 -313.5 t4.5 -314.5v-168q0 -98 -2 -187.5t-9.5 -174.5t-22.5 -165t-40 -141q-35 -100 -89 -142t-167 -85l-4 -2q-25 -10 -32 -16.5t-7 -10.5z" />
<glyph unicode="K" horiz-adv-x="1701" d="M41 1688q68 -45 90.5 -100.5t26.5 -131.5q8 -154 12 -315.5t4 -317.5q0 -408 -4 -612q-2 -66 -33 -110t-84 -72v-29q84 8 140.5 11t107.5 3q55 0 114.5 -3t155.5 -11v29q-117 53 -122 194q-14 295 -17 531q6 6 12 14l37 43q57 -61 119 -137l156 -197l69 -90l62 -80 q63 -82 107 -132t101.5 -94t132.5 -69.5t169 -25.5q96 0 180 30.5t84 44.5q0 10 -10.5 17.5t-46.5 7.5q-29 0 -45.5 -3t-28.5 -7t-19 -4q-88 0 -191 102t-271 318l-121 149q-197 236 -279 352l37 41l220 237l171 177q80 80 166 145.5t172 96.5l25 28l-142 -8q-94 -6 -133 -6 q-72 0 -229 14l-25 -28q12 -20 13 -58q0 -45 -21.5 -95t-52.5 -89q-88 -117 -195.5 -237.5t-222.5 -235.5q0 160 1 267.5t7 205.5q6 80 31 144.5t82 93.5v24q-45 -2 -125 -8q-92 -6 -131 -6q-51 0 -107.5 4t-148.5 12v-24z" />
<glyph unicode="L" horiz-adv-x="1282" d="M41 29l2 -35q199 18 272 18q72 0 195 -6q80 -4 132 -6t124 -2q61 0 184 8q72 4 80 4q53 2 81 31t36 59q12 45 53 138q23 49 32 75.5t9 42.5q0 12 -10 24.5t-43 12.5q-27 0 -48.5 -23.5t-52.5 -70.5q-51 -80 -86 -106q-59 -47 -137 -70t-153 -23q-113 0 -177.5 38 t-70.5 141q-8 172 -12.5 287.5t-4.5 260.5v244q0 129 1.5 213t7.5 162q6 80 30.5 144.5t79.5 92.5v25q-41 -2 -121 -8q-92 -6 -133 -6q-51 0 -106 4t-152 12v-24q68 -45 91.5 -101.5t27.5 -132.5q8 -152 12 -313.5t4 -317.5v-287q0 -101 -4 -258q0 -31 -13 -69.5 t-34.5 -75.5t-46 -63.5t-49.5 -38.5z" />
<glyph unicode="M" horiz-adv-x="2213" d="M41 -8q82 12 133 16t98 4q53 0 128 -5t147 -15l-15 35q-57 25 -82.5 64.5t-25.5 103.5q0 31 2 41l109 833l282 -588l124 -260q40 -84 55 -113l26 -50l18 -35q10 -16 22.5 -24.5t39.5 -8.5q20 0 35.5 10t21.5 18l432 1045l123 -907v-9q2 -4 2 -6q0 -29 -13 -44t-38 -34 q-35 -25 -35 -43v-28q90 14 153.5 19t125.5 5q55 0 117.5 -6t146.5 -20v33q-74 29 -118 80t-56 130l-178 1217q0 4 -2 14v17q0 59 31.5 117.5t84.5 87.5v24l-90 -6q-74 -4 -105.5 -5t-76.5 -1l-102 -244l-437 -1030l-583 1274q-84 0 -139.5 2t-133.5 10v-24 q125 -88 125 -209l-162 -1192q-12 -98 -54 -168t-109 -92z" />
<glyph unicode="N" horiz-adv-x="1730" d="M41 1722l10 -28q63 -45 90 -98.5t33 -120.5v-15q4 -68 4 -209q0 -74 -2 -219q-2 -141 -2 -207q0 -410 -4 -612q-2 -66 -33 -111t-84 -71v-29q90 8 119 10t61 2q53 0 114 -3t155 -11v29q-115 51 -121 194q-16 322 -16 606v277v145l1060 -1224q18 -25 44 -44.5t47 -19.5 q35 0 47 15.5t12 52.5q0 14 -2 55l-2 23q-4 68 -4 231q0 76 2 270q2 143 2 219v244q0 129 1 213t7 162q6 80 30.5 144.5t80.5 93.5v24q-43 -2 -123 -8q-92 -6 -131 -6q-14 0 -58 6q-66 12 -121 16v-26q66 -43 84.5 -96.5t22.5 -135.5v-2q8 -152 12 -313.5t4 -317.5v-254 v-129l-1065 1258q-53 2 -103 5t-142 13q-19 2 -29 2z" />
<glyph unicode="O" horiz-adv-x="1863" d="M41 844q0 -172 68.5 -330t191.5 -278.5t286 -188t345 -67.5t345 64.5t286 182t191.5 278.5t68.5 343q0 178 -59.5 333.5t-174 274.5t-281.5 186.5t-376 67.5q-182 0 -345 -67.5t-286 -189.5t-191.5 -279.5t-68.5 -329.5zM334 897q0 156 44 284t125 219t190.5 140 t238.5 49q131 0 242.5 -54t195.5 -159.5t130 -258t46 -345.5q0 -154 -46 -278.5t-130 -212.5t-195.5 -134.5t-242.5 -46.5q-125 0 -234.5 63.5t-191.5 176.5t-127 257t-45 300z" />
<glyph unicode="P" horiz-adv-x="1273" d="M41 -4q152 14 274 14q53 0 113.5 -3t155.5 -11v29q-66 31 -90.5 68.5t-30.5 125.5q-16 240 -17 541q37 -10 80 -15.5t80 -5.5q117 0 214.5 16.5t174.5 71.5q106 74 172 184.5t66 223.5q0 106 -55.5 208.5t-165.5 170.5q-61 37 -155.5 60.5t-168.5 23.5q-59 0 -186 -8 q-123 -10 -191 -11q-86 0 -266 17v-31q72 -37 97.5 -89t29.5 -126q8 -152 12 -313.5t4 -317.5q0 -408 -4 -612q-2 -61 -41 -104.5t-102 -75.5v-31zM446 840v239q0 125 1.5 206t7.5 157q2 16 2 49q0 66 10 90h6q72 8 102 8q68 0 125.5 -13t110.5 -48q59 -41 99 -119t40 -160 q0 -102 -19.5 -185t-62.5 -130q-55 -57 -125.5 -86t-144.5 -31q-16 0 -61 10q-60 13 -91 13z" />
<glyph unicode="Q" horiz-adv-x="1904" d="M41 821q0 -178 68.5 -328.5t190.5 -259t283.5 -171t346.5 -72.5q131 -8 247.5 -55.5t280.5 -135.5q262 -141 475 -218t457 -77q166 0 331 64.5t285 171.5q20 16 28.5 25.5t8.5 11.5l-2 2q-23 12 -45 12q-14 0 -31.5 -7t-21.5 -9q-76 -61 -149.5 -86t-163.5 -25 q-225 0 -436.5 60.5t-526.5 183.5q-244 94 -377 137q127 45 231.5 121t180.5 179.5t117 229t41 265.5q0 170 -60.5 325.5t-178.5 277.5t-286 191.5t-377 69.5q-182 0 -349 -70.5t-296 -194.5t-200.5 -285t-71.5 -333zM334 874q0 158 44 288t126 224.5t196.5 144.5t253.5 50 q127 0 239 -49t198 -146.5t134 -243t48 -329.5q0 -330 -163 -517t-435 -187q-137 0 -255 57t-205 160.5t-134 243.5t-47 304z" />
<glyph unicode="R" horiz-adv-x="1804" d="M41 -6q152 14 274 14q55 0 114.5 -3t156.5 -11v29q-66 29 -91.5 67.5t-31.5 124.5q-14 250 -14 535l24 2q57 6 84 6h82q51 -55 97 -122l114 -169q84 -129 145.5 -213t140 -157.5t178 -118t220.5 -44.5q25 0 63.5 7.5t77.5 20.5t63.5 28.5t24.5 32.5q-6 6 -21.5 13 t-33.5 7q-20 0 -57 -4q-23 -2 -35 -2q-72 0 -147.5 52t-148.5 139t-136 185l-150 236l-92 148q37 12 78 39q102 70 158.5 175t56.5 222q0 109 -53.5 213t-163.5 170q-57 37 -155.5 58.5t-174.5 21.5q-61 0 -184 -8q-125 -10 -193 -11q-88 0 -264 17v-31q72 -37 96.5 -89 t28.5 -126q8 -152 12 -313.5t4 -317.5q0 -410 -4 -614q-2 -61 -41 -104.5t-102 -75.5v-29zM449 868v228q0 236 8 344q2 18 2 53q0 61 8 86h6q72 8 105 8q78 0 135 -9t104 -42q59 -41 97 -122t38 -167q0 -203 -76.5 -290t-277.5 -87h-59q-57 -2 -90 -2z" />
<glyph unicode="S" horiz-adv-x="1091" d="M41 344q0 -33 4 -70.5t10 -66.5q2 -18 2 -21q0 -55 17.5 -86.5t72.5 -48.5q12 -4 50 -14q88 -27 149.5 -39t136.5 -12q139 0 247 42t178.5 111.5t105.5 156.5t35 179q-2 84 -35 157t-88.5 134t-115.5 109.5t-153 113.5q-164 117 -242.5 200t-78.5 191q0 88 67.5 153.5 t145.5 65.5q63 0 129.5 -22.5t124.5 -71.5q12 -12 41 -61q29 -51 51.5 -79t52.5 -28q29 0 41 16.5t12 28.5q0 45 -8 136q-10 98 -10 149q0 8 -11 18.5t-40 10.5q-35 0 -54.5 -5t-35.5 -14q-6 -4 -8 -4q-33 0 -111 17q-96 18 -150 18q-119 0 -209 -39t-148 -102.5t-87 -139 t-29 -153.5t30 -144.5t80 -122t107.5 -99.5t147.5 -105q84 -57 137 -98t99.5 -89.5t73 -105.5t26.5 -125q0 -70 -25.5 -125t-68.5 -91t-91.5 -53.5t-95.5 -17.5q-61 0 -146 41t-138 103q-23 27 -54 98q-20 45 -33.5 64.5t-31.5 19.5q-41 0 -58.5 -26.5t-17.5 -53.5z" />
<glyph unicode="T" horiz-adv-x="1624" d="M41 1440q0 -4 18.5 -13.5t36.5 -9.5q27 0 47.5 12.5t42.5 32.5q10 10 15 13q37 31 70.5 47t58.5 22q82 18 166 24.5t190 6.5l2 -102q4 -150 4 -295v-361q0 -408 -4 -612q-2 -66 -32.5 -110t-86.5 -72v-29q86 8 142.5 11t107.5 3q55 0 113.5 -3t154.5 -11v29 q-115 55 -120 194q-16 324 -17 606v133q-2 82 -2 150q0 203 10 336l11 133h161q106 0 156 -2q20 -2 37.5 -15.5t24.5 -41.5q2 -4 4 -23q4 -35 14 -53.5t39 -18.5q14 0 37.5 9.5t25.5 21.5q10 45 60 145q49 96 55 136h-70q-14 -4 -40 -15q-55 -20 -89 -22l-170 -4 q-236 -8 -346 -9q-334 0 -501 3q-41 2 -57.5 8t-37.5 28h-86q-10 -43 -45 -108q-12 -25 -14 -31q-12 -27 -49 -78q-35 -49 -37 -65z" />
<glyph unicode="U" horiz-adv-x="1589" d="M41 1679q68 -45 91.5 -101t27.5 -132q4 -119 4 -184q0 -88 -2 -234q-4 -160 -4 -219q0 -43 4 -174l2 -143q2 -166 61.5 -271.5t151.5 -158t194.5 -69t216.5 -16.5q154 0 262.5 20.5t193.5 86.5t133 202t48 359q0 16 2 90v88q0 201 1.5 345.5t7.5 273.5q4 109 26.5 157 t85.5 80v25q-45 -2 -125 -8q-92 -6 -131 -6q-20 0 -75 4q-66 6 -119 8v-25q80 -43 103.5 -89t27.5 -142q4 -82 4 -252v-195q-2 -158 -2 -184v-98q0 -82 -2 -139q-4 -158 -32 -254.5t-78 -145.5t-122.5 -65.5t-187.5 -16.5q-84 0 -144.5 14.5t-109.5 58.5t-80 131t-35 228 q-4 106 -5 169t-1 124v244q0 129 1 213t7 162q6 80 31 144.5t80 92.5v25q-41 -2 -121 -8q-92 -6 -133 -6q-51 0 -106.5 4t-151.5 12v-25z" />
<glyph unicode="V" horiz-adv-x="1847" d="M41 1704l6 -29q80 -41 116 -89t68 -128l7 -12l34 -76l140 -314q59 -134 104 -251l51 -119l74 -166l135 -310q49 -116 82 -202q6 -12 24.5 -24.5t43.5 -12.5t41 10.5t20 18.5l130 321l124 289l88 207l49 125l111 278q47 114 94 216q45 88 94 149.5t117 89.5l12 27 q-47 -2 -129 -8q-96 -6 -137 -6q-84 0 -242 16l-14 -33q57 -12 77.5 -38.5t20.5 -71.5q0 -59 -28 -129l-35 -101l-118 -329l-91 -242l-147 -365l-9 17q-119 274 -172 411l-128 320l-115 297q-20 55 -21 123q0 78 45 106l-14 27q-174 -10 -246 -10q-57 0 -203 12z" />
<glyph unicode="W" horiz-adv-x="2482" d="M41 1714l6 -28q80 -41 115 -87.5t71 -125.5q0 -2 7 -17l146 -327l138 -318l99 -219l149 -342q61 -141 98 -238q6 -12 24.5 -24.5t43.5 -12.5t41 10.5t20 18.5l138 334l100 235l147 -329q61 -139 97 -234q8 -12 24.5 -24.5t40.5 -12.5q25 0 42.5 11.5t21.5 17.5l131 321 l129 304l84 194l112 272l150 351q41 86 91 148.5t122 90.5l12 27q-37 -2 -133 -8q-92 -6 -135 -6q-51 0 -107.5 4t-140.5 12l-14 -33q61 -12 82.5 -38.5t21.5 -73.5q0 -57 -28 -127l-99 -266l-82 -223l-71 -187l-82 -199l-68 -168l-184 430l-19 43q-6 10 -10 21l55 137 q119 289 181 418q43 84 93 147.5t120 92.5l12 26q-39 -2 -135 -8q-98 -6 -135 -6q-51 0 -106.5 4t-139.5 12l-14 -33q59 -12 80.5 -38.5t21.5 -73.5q0 -57 -29 -127q-20 -51 -57 -156l-49 -139l-115 303q-20 51 -20 119q0 80 45 108l-15 27q-88 -4 -146 -7t-106 -3 q-57 0 -200 12q-31 4 -64 6l6 -29q80 -41 115 -87t70 -121q6 -14 8 -21l160 -349q70 -155 125 -296q2 -4 6 -14l-13 -29l-149 -367l-186 430q-57 129 -113 273l-131 348q-23 51 -23 121q0 82 47 108l-14 27q-88 -4 -146.5 -7t-107.5 -3q-55 0 -207 14z" />
<glyph unicode="X" horiz-adv-x="1765" d="M41 -2q59 6 65 6q145 12 199 12q59 0 221 -14q49 -4 54 -4v25q-47 33 -48 96q2 45 31 100q66 121 143 245l168 263l115 -209l176 -313q23 -37 35 -71t12 -58q0 -35 -22 -51v-27q150 14 254 14q53 0 114.5 -3t165.5 -11l-20 33q-72 25 -124 76t-101 126l-377 601 q-10 16 -29 49q-27 45 -45 71l299 414l64 84q57 74 137 137.5t164 93.5l20 29l-133 -8q-100 -6 -135 -6q-86 0 -260 16v-24q25 -35 24 -72q0 -37 -16 -77t-43 -79l-219 -346q-96 160 -189 336l-16 31q-31 51 -46 87t-15 66q0 33 22 50l6 22q-29 -2 -117 -6q-106 -8 -145 -8 q-51 0 -108 4l-164 12l18 -29q82 -37 128 -86t97 -129q6 -12 21 -32l147 -226l207 -315q-16 -20 -41 -62l-426 -612q-47 -68 -108.5 -112t-134.5 -72z" />
<glyph unicode="Y" horiz-adv-x="1691" d="M41 1708l18 -31q82 -43 130.5 -96t103.5 -135q25 -39 31 -47q74 -111 217 -365l155 -268q0 -375 -4 -561q-2 -66 -32.5 -110t-84.5 -72v-29q84 8 140.5 11t107.5 3q55 0 114.5 -3t156.5 -11v29q-117 53 -123 194q-14 268 -15 459q0 104 2 158l183 273l202 302 q70 102 133.5 174t139.5 105l35 28q-53 -2 -91 -6t-81 -10q-53 -8 -78 -8q-29 0 -57.5 2t-69.5 6q-53 6 -105 10l9 -27q27 -35 26 -84q0 -39 -24.5 -88t-65.5 -116q-6 -12 -10 -19q-115 -197 -250 -375q-51 76 -149 252l-74 133l-25 46q-33 57 -50 97t-17 75q0 18 12 43.5 t24 33.5l15 29q-49 -4 -121 -12q-106 -10 -145 -10q-55 0 -122 5t-161 15z" />
<glyph unicode="Z" horiz-adv-x="1812" d="M41 29q0 -20 15.5 -27.5t37.5 -7.5q8 0 21 2h4q203 0 293 1t202 5q117 2 213 4q39 0 160 -2t168 -4q285 -6 322 -6q47 0 80.5 12t54 30.5t30 36t13.5 31.5q8 33 25.5 64t45.5 72q45 68 46 90q0 6 -15.5 17t-42.5 11q-23 0 -41 -13t-49 -44q-49 -49 -84 -72 q-45 -31 -134 -52t-190.5 -32.5t-189.5 -16.5t-174 -7q-20 -2 -33 -2l-55 -2q-102 -2 -137 -2q-84 0 -116 6t-32 22q0 8 2 13l2 4l1219 1474l2 4q8 14 8 19q0 10 -16.5 20.5t-44.5 10.5q-8 0 -340 4q-297 2 -357 2q-43 0 -106.5 1t-179.5 3q-182 4 -240.5 5t-118.5 1 q-76 0 -102.5 -16.5t-26.5 -47.5q0 -49 -12 -131q-10 -61 -10 -90q0 -10 15 -29.5t42 -19.5q23 0 34 12.5t23 40.5q12 31 27.5 51.5t44.5 36.5q70 35 203 52.5t346 17.5h129h154q61 0 122 -4l-386 -477l-285 -350l-202 -247l-224 -274l-134 -164q-26 -32 -26 -36z" />
<glyph unicode="\" horiz-adv-x="641" d="M41 1647l426 -1649h133l-426 1649h-133z" />
<glyph unicode="_" horiz-adv-x="589" d="M41 -57v-41h508v41h-508z" />
<glyph unicode="`" horiz-adv-x="471" d="M41 1708l129 -176q31 -37 80 -67.5t100 -30.5q80 0 80 51q0 20 -16 47l-97 172q-80 -18 -120 -18q-27 0 -61 4t-95 18z" />
<glyph unicode="a" horiz-adv-x="1454" d="M33 -6q63 8 104 11t82 3q37 0 73 -2t91 -10v16q-29 25 -29 58q0 27 19 65l145 326q84 8 193 8q102 0 186 -8l127 -301q4 -4 8 -21.5t4 -32.5q0 -20 -30 -55q-23 -25 -23 -35v-20q72 8 126 12t99 4t94.5 -4t116.5 -14v22q-53 20 -88 54t-59 92l-393 854l-78 172h-74 q-106 0 -229 8l6 -16q55 -33 90 -76t35 -86q0 -12 -4 -21l-392 -827q-31 -61 -74.5 -97t-105.5 -57zM561 539v4l156 334l143 -334v-4q-49 -2 -151 -2q-99 0 -148 2z" />
<glyph unicode="b" horiz-adv-x="1089" d="M33 -2q147 10 221 10q29 0 127 -2q139 -4 182 -4q94 0 171 9t132 38q92 53 141.5 131t49.5 150q0 70 -34 132t-110 111q-33 23 -88 43.5t-120 34.5q82 47 133 113.5t51 148.5q0 68 -35 119t-88 84t-110.5 48.5t-104.5 15.5h-4q-180 -4 -297 -4q-78 0 -213 12v-23 q59 -27 78.5 -62.5t23.5 -86.5q6 -131 9.5 -241.5t3.5 -201.5q0 -135 -1 -217t-8 -178q-2 -45 -35.5 -93t-74.5 -67v-20zM358 590q29 0 93 -2q37 -2 47 -2q168 0 252 -84t84 -209q0 -45 -15.5 -89t-50.5 -69q-72 -57 -193 -57q-137 0 -175 21.5t-38 99.5v41q0 57 -2 176 t-2 174zM362 905q0 68 3 105q2 14 4 41q2 41 8 55q47 6 88 6t78 -8t66.5 -30.5t47 -61.5t17.5 -99q0 -129 -52.5 -186t-121.5 -57q-23 0 -61 1t-72 3q0 45 -2 123q-3 73 -3 108z" />
<glyph unicode="c" horiz-adv-x="1370" d="M33 590q0 -121 54 -230.5t153.5 -194.5t230.5 -132t279 -47q131 0 240.5 18.5t205.5 61.5q61 20 76 57q23 35 44 76t21 51q-2 4 -11 10t-30 6q-16 0 -31.5 -12t-33.5 -33l-23 -22q-74 -61 -191.5 -91t-228.5 -30q-100 0 -194 44t-168 120.5t-116 177t-42 209.5t37 201 t109 157q150 141 397 141q139 0 250 -47q29 -12 50.5 -31.5t49.5 -50.5q47 -51 70 -51q27 0 36 9.5t9 21.5q0 14 -4 53q-4 45 -4 70q0 37 -7.5 54.5t-37.5 17.5q-43 0 -43 -9q-25 0 -86 13q-16 4 -29 6q-88 14 -157.5 21t-129.5 7q-164 0 -302 -50t-237.5 -137 t-152.5 -199.5t-53 -235.5z" />
<glyph unicode="d" horiz-adv-x="1490" d="M33 1176q127 -74 133 -158q6 -104 9 -218t3 -225v-202q0 -131 -2 -203q-2 -45 -40 -87t-85 -63v-20q113 10 230 10q53 0 180 -6q121 -8 182 -8q180 0 331.5 50t260 139t167 209t58.5 257q0 119 -57 219.5t-158.5 173t-236 111.5t-283.5 39q-72 0 -122 -2t-128 -6 q-63 -2 -104 -4t-92 -2q-47 0 -114 3t-132 9v-16zM387 582v170q0 180 6 262q0 6 2 20q2 35 6 58q18 10 101.5 14t222.5 4q109 0 196 -27.5t158 -93.5q66 -66 107 -173t41 -218q0 -106 -39 -200.5t-108.5 -165t-162 -109.5t-192.5 -39q-135 0 -210 10t-112 35v14q-2 10 -2 13 q-14 248 -14 426z" />
<glyph unicode="e" horiz-adv-x="1099" d="M33 1196l4 -22q63 -27 93 -67t32 -87q8 -104 11 -217t3 -225q0 -238 -2 -381q-2 -45 -41 -97.5t-82 -70.5v-31q35 2 80 6q109 8 148 8h145q80 -2 184 -2h244q74 0 97.5 16.5t29.5 43.5v2q10 33 51 92q37 55 37 74q0 4 -13.5 11t-33.5 7q-18 0 -37.5 -15.5t-52.5 -47.5 q-45 -45 -70 -64q-45 -31 -93 -40t-118 -9q-45 0 -86 4t-77.5 17.5t-61.5 37t-27 60.5v12q-8 129 -11 201.5t-3 167.5q162 0 233 -7q59 -4 101.5 -20t64.5 -57h72q-4 47 -4 61v53q0 31 6 76q4 33 6 51h-67q-39 -49 -76 -64.5t-88 -15.5q-23 -2 -72 -2q-12 0 -84 2h-92v103 q0 174 8 256q0 10 2 20q2 53 8 74l37 2q98 8 133 8q117 0 172.5 -19.5t77.5 -51.5q4 -4 8 -13q8 -14 19.5 -22t34.5 -8q20 0 31.5 7t11.5 11q0 20 -6 53q-8 45 -9 80q0 12 -19.5 19.5t-48 11.5t-58 5t-64.5 1q-53 0 -162 -6q-39 -2 -59 -4l-99 -4q-68 -2 -84 -2 q-25 0 -65.5 3t-130.5 9q-18 2 -88 6z" />
<glyph unicode="f" horiz-adv-x="958" d="M33 1202l4 -24q66 -27 94.5 -67t30.5 -87q8 -102 11 -215t3 -225q0 -223 -6 -439q-2 -88 -94 -129v-18q143 10 200 10q39 0 77 -2t126 -8h13v18q-92 41 -97 138q-6 106 -10 228t-4 220h39h119q57 0 79 -2q61 -4 95.5 -17.5t56.5 -54.5l80 -4q-4 72 -6 105v22v-22v41v-19 q2 16 4 43q6 29 6 51h-72q-33 -43 -59.5 -53t-79.5 -12h-14q-16 -2 -51 -2q-41 0 -117 4q-25 0 -70 2q0 37 -2 107q-2 68 -2 100q0 66 6 129l2 20q2 53 8 76q27 2 93 6q55 4 75 4q115 0 171.5 -19.5t82.5 -53.5q2 -2 4 -9q8 -14 19.5 -23t34.5 -9q20 0 31.5 7t11.5 11 q0 18 -6 53q-6 45 -7 80q0 12 -19.5 19.5t-48 11.5t-58 5t-66.5 1q-51 0 -166 -6l-53 -4l-103 -4q-66 -2 -82 -2q-20 0 -69 3t-121 9z" />
<glyph unicode="g" horiz-adv-x="1409" d="M33 590q0 -121 55 -230.5t154.5 -194.5t230.5 -132t277 -47q223 0 380 55q23 8 62 16q51 14 70 21q20 10 27 25.5t7 27.5q0 96 1 149.5t6 116.5l2 17q2 59 14 97t51 54l6 17q-51 -2 -110 -7q-53 -4 -78 -4q-39 0 -87 3.5t-122 7.5v-17q55 -33 72.5 -64.5t21.5 -97.5 q6 -57 6 -182q0 -35 -4 -58.5t-18 -27.5q-98 -31 -168 -49t-119 -18q-102 0 -193.5 45t-161 123.5t-108.5 181t-39 211.5t38 201t109.5 159.5t172 103t223.5 35.5q66 0 124 -12t118 -39q31 -12 56.5 -35.5t55.5 -58.5q51 -57 72 -57q25 0 35 18.5t10 34.5q0 14 -2 51 q-4 39 -4 62v47q0 6 -7 11t-30 5q-12 0 -31 -2q-18 -2 -30 -2q-10 0 -43 12q-43 16 -70 21q-88 14 -157.5 21t-129.5 7q-164 0 -302 -50t-237.5 -137t-152.5 -199.5t-53 -235.5z" />
<glyph unicode="h" horiz-adv-x="1415" d="M33 1178q55 -31 72.5 -69t21.5 -93q6 -119 10 -232.5t4 -210.5q0 -285 -4 -428q-2 -45 -26.5 -76.5t-67.5 -52.5v-18q143 10 199 10q41 0 79.5 -2t124.5 -8h13v18q-92 41 -97 138q-14 248 -14 424v4q121 4 365 4q231 0 352 -4v-7q0 -287 -4 -430q-6 -88 -94 -127v-20 q57 6 105 8t95 2q49 0 100.5 -2t114.5 -8v20q-92 39 -96 138q-14 199 -14 424v170q0 180 6 262q6 57 25.5 102t64.5 64v18q-45 -2 -104 -6q-72 -4 -101 -4q-57 0 -207 10v-16q55 -31 74 -70t21 -94q12 -221 14 -352h-16q-215 -4 -336 -5q-180 0 -365 7v98q0 168 8 248 q4 57 23.5 101t64.5 65v16q-43 -2 -102 -6q-72 -4 -102 -4q-72 0 -207 12v-18z" />
<glyph unicode="i" horiz-adv-x="491" d="M33 1178q53 -31 71.5 -69t22.5 -93q6 -119 10 -232.5t4 -210.5q0 -285 -4 -428q-2 -45 -26.5 -76.5t-67.5 -52.5v-18q72 6 116 8t83 2q37 0 74 -2l118 -6q6 0 25 -2v18q-92 41 -99 138q-12 283 -12 424v170q0 182 6 264q6 57 25.5 101t64.5 65v16l-106 -6q-66 -4 -98 -4 q-41 0 -88.5 3t-118.5 9v-18z" />
<glyph unicode="j" horiz-adv-x="661" d="M33 -178q0 -8 24.5 -14.5t40.5 -6.5q45 0 84 11.5t84 31.5q74 27 130.5 66t84.5 92q41 78 52.5 180.5t11.5 278.5v360q0 135 4 199q4 61 20.5 106t59.5 66v16q-45 -2 -115 -8q-55 -4 -84 -4q-33 0 -89 3t-142 9v-18q115 -68 120 -164q6 -102 9.5 -217t3.5 -223v-117 q0 -154 -11.5 -270.5t-48.5 -196.5q-29 -72 -72.5 -101.5t-136.5 -60.5q-20 -6 -25 -10t-5 -8z" />
<glyph unicode="k" horiz-adv-x="1370" d="M33 1182q53 -31 71.5 -70t22.5 -92q6 -121 10 -234.5t4 -210.5q0 -285 -4 -428q-2 -45 -26.5 -75.5t-67.5 -51.5v-20q109 10 199 10q51 0 101 -2t116 -8v20q-92 37 -99 136q-12 246 -12 372q6 4 25 25l14 14q70 -63 215 -227l62 -70q14 -14 51 -57q49 -55 85 -90 t83 -66.5t106.5 -49t134.5 -17.5q78 0 145.5 21.5t67.5 31.5q0 6 -8 11t-39 5q-35 0 -57 -6q-8 -4 -14 -4q-72 0 -153 70.5t-222 224.5l-92 98q-160 168 -230 254l137 129l207 189q74 61 139.5 104t135.5 66l18 18q-31 -2 -121 -6q-72 -4 -100 -4q-39 0 -82 3l-102 7 l-19 -18q8 -16 8 -41q0 -31 -17 -66t-42 -63q-74 -82 -159 -166t-177 -166q0 111 1 188.5t5 143.5q6 57 25.5 101t64.5 65v16q-59 -2 -84 -4q-86 -4 -120 -4q-57 0 -207 10v-16z" />
<glyph unicode="l" horiz-adv-x="1032" d="M33 20l2 -24l41 2q129 10 178 10q59 0 156 -4q72 -4 111.5 -5t94.5 -1q57 0 162 6l51 4q41 2 63.5 20.5t31.5 41.5q8 31 43 98q33 63 32 82q0 8 -7 16t-36 8q-20 0 -36.5 -15t-42.5 -48q-41 -55 -72 -76q-47 -35 -109.5 -50t-124.5 -15q-90 0 -142 26.5t-56 98.5 q-6 113 -9.5 198.5t-3.5 186.5v170q0 180 5 262q8 59 27.5 103t62.5 63v18q-43 -2 -103 -6q-72 -4 -102 -4q-39 0 -87 3t-104 5q-8 2 -16 2v-16q55 -31 73.5 -71t22.5 -93q6 -129 9.5 -238.5t3.5 -202.5v-202q0 -72 -5 -180q-2 -45 -38.5 -101t-75.5 -72z" />
<glyph unicode="m" horiz-adv-x="1783" d="M33 -6q66 8 105.5 11t80.5 3q49 0 106.5 -3t114.5 -11l-12 24q-86 31 -86 117q0 23 2 29l86 584l303 -547l74 -132q20 -36 31 -53q8 -12 18 -18t33 -6q16 0 28.5 7t14.5 13l350 731l98 -634v-7q2 -2 2 -4q0 -20 -11 -31.5t-30 -21.5q-29 -16 -28 -31v-20q70 10 122 14 t101 4q47 0 96 -4t117 -16v24q-59 20 -95 55t-46 93l-144 852v8q-2 6 -2 10q0 41 27 83t70 63v16l-74 -4l-85 -3q-28 -1 -63 -1l-82 -170l-350 -721l-469 891q-61 0 -106 2t-113 6v-16q98 -61 98 -146l-129 -835q-10 -68 -43.5 -117t-89.5 -66z" />
<glyph unicode="n" horiz-adv-x="1392" d="M33 1206l10 -20q49 -31 71.5 -69t26.5 -85v-10q2 -47 2 -145v-154q-2 -125 -2 -145q0 -287 -4 -428q-2 -45 -26.5 -77t-67.5 -53v-18q82 6 100.5 7t44.5 1q49 0 100.5 -2t117.5 -8v20q-92 35 -99 136q-12 213 -12 426v192v103l852 -859q14 -16 35.5 -30.5t38.5 -14.5 q47 0 47 47q0 33 -2 56q-4 47 -4 162q0 53 2 190q2 100 2 154v170q0 180 6 262q4 55 24.5 100t65.5 66v16q-43 -2 -80 -4q-94 -4 -125 -4q-14 0 -51 4q-49 8 -92 10v-18q51 -31 66.5 -70t17.5 -94q8 -102 11 -215t3 -225v-179v-90l-858 881q-49 0 -95 3t-122 11h-4z" />
<glyph unicode="o" horiz-adv-x="1501" d="M33 590q0 -121 55 -230.5t154.5 -194.5t230.5 -132t277 -47q147 0 278 45t229.5 128t153.5 194.5t55 240.5q0 123 -47 232.5t-140 192.5t-227 130t-302 47q-145 0 -276.5 -47t-231 -132t-154.5 -195.5t-55 -231.5zM268 629q0 109 36 197.5t100.5 153t152.5 98.5t193 34 q217 0 355 -152.5t138 -418.5q0 -217 -138 -344t-355 -127q-100 0 -189.5 45t-154 122.5t-101.5 179t-37 212.5z" />
<glyph unicode="p" horiz-adv-x="1024" d="M33 -2q147 10 221 10q39 0 90 -3t109 -5q8 -2 18 -2v18q-53 23 -73.5 49.5t-24.5 88.5q-12 150 -13 378q29 -8 62 -11t65 -3q94 0 172 11.5t142 50.5q84 51 137 128.5t53 155.5q0 76 -44 147.5t-132 118.5q-49 25 -126 41.5t-136 16.5q-49 0 -147 -6q-102 -6 -156 -6 q-76 0 -215 12v-23q59 -27 79.5 -62.5t24.5 -86.5q6 -131 9.5 -241.5t3.5 -201.5q0 -285 -5 -428q-2 -43 -32.5 -72.5t-81.5 -54.5v-20zM360 588v168q0 174 5 254q2 14 4 41q2 41 8 55q47 6 88 6q113 0 188 -43q49 -29 81 -83t32 -112q0 -72 -15.5 -130t-50.5 -91 q-45 -41 -102 -60.5t-117 -21.5q-12 0 -49 7q-47 10 -72 10z" />
<glyph unicode="q" horiz-adv-x="1533" d="M33 575q0 -125 55 -230t153.5 -181t228.5 -120t280 -52q106 -6 200 -39t224 -94q211 -98 383 -151.5t368 -53.5q131 0 264 45t232 119q27 18 28 26l-2 2q-16 8 -34 9q-14 0 -27.5 -5.5t-15.5 -7.5q-61 -43 -120 -60.5t-132 -17.5q-180 0 -351.5 42t-423.5 128 q-199 66 -305 97q207 63 333 211.5t126 345.5q0 119 -49 227.5t-143.5 193.5t-230.5 134t-302 49q-145 0 -280.5 -49t-238.5 -136t-161.5 -199t-58.5 -233zM268 612q0 221 137.5 357.5t362.5 136.5q213 0 356.5 -140.5t143.5 -396.5q0 -231 -132 -362t-352 -131 q-111 0 -206 40t-164.5 112.5t-107.5 170.5t-38 213z" />
<glyph unicode="r" horiz-adv-x="1454" d="M33 -4q147 10 221 10q37 0 75 -2l117 -6q6 0 25 -2v20q-51 18 -72.5 46t-25.5 90q-12 184 -13 372q53 6 89 6h65q59 -57 166 -200q70 -92 119 -150.5t113.5 -111t145.5 -83t177 -30.5q23 0 53.5 5t60 13.5t50 19.5t20.5 23q-4 4 -16 9.5t-27 5.5q-20 0 -47 -2 q-20 -2 -29 -2q-57 0 -118.5 36.5t-118.5 97t-108.5 126t-120.5 166.5q-49 70 -76 104q29 8 61 27q0 2 2 2q82 49 127 122.5t45 153.5q0 76 -43 148.5t-131 119.5q-45 27 -124 42.5t-142 15.5q-49 0 -147 -6q-100 -8 -156 -8q-78 0 -213 12v-23q59 -25 78.5 -60.5 t23.5 -88.5q6 -131 9.5 -240.5t3.5 -202.5q0 -287 -5 -430q-2 -43 -33.5 -73.5t-80.5 -51.5v-20zM360 608v158q0 166 7 242q2 16 2 43q2 39 8 55q61 4 88 4q66 0 111 -6t81 -29q49 -29 80 -87t31 -116q0 -141 -61.5 -201.5t-225.5 -60.5h-47q-45 -2 -74 -2z" />
<glyph unicode="s" horiz-adv-x="878" d="M33 242q0 -25 4 -52.5t8 -48.5l2 -10q0 -41 13.5 -62.5t58.5 -31.5l33 -8q76 -20 125 -29.5t112 -9.5q219 0 344 108q55 47 83 108.5t28 125.5q-2 59 -29 110.5t-71 94.5t-92 75l-124 82q-131 80 -194.5 138.5t-63.5 134.5q0 61 54.5 107t117.5 46q51 0 104.5 -15 t98.5 -52q12 -8 35 -45q25 -35 42 -53.5t42 -18.5q23 0 32 11t9 20q0 31 -6 96q-8 68 -8 104q0 6 -9.5 13.5t-31.5 7.5q-27 0 -43.5 -4t-28.5 -10l-6 -3q-27 0 -88 11q-80 14 -123 14q-94 0 -168 -27.5t-121 -71.5t-69.5 -97.5t-22.5 -108.5t24.5 -102.5t65.5 -85t86 -68.5 t119 -74q135 -80 202.5 -142.5t67.5 -148.5q0 -96 -71.5 -148t-153.5 -52q-51 0 -120 27.5t-112 72.5q-18 18 -41 68q-16 31 -26 45t-27 14q-33 0 -47 -18.5t-14 -36.5z" />
<glyph unicode="t" horiz-adv-x="1306" d="M33 1008q0 -2 14 -9.5t31 -7.5q20 0 36.5 9.5t35.5 23.5q8 6 12 8q55 39 104 49q104 20 285 21l2 -72q4 -88 5 -197.5t1 -261.5q0 -285 -6 -428q-2 -45 -26.5 -75.5t-67.5 -51.5v-20h14q94 8 121 9t65 1q37 0 75 -2l118 -6q6 0 25 -2v20q-92 37 -99 136q-12 215 -12 423 v95q-2 57 -2 104q0 135 8 236l8 92h129h127q16 -2 30.5 -11.5t18.5 -29.5q0 -4 2 -10q2 -27 10.5 -41.5t32.5 -14.5q12 0 31 6.5t21 14.5q8 33 49 102q39 68 43 94h-55q-16 -4 -35 -10q-45 -14 -70 -14l-98 -2q-221 -8 -316 -8q-270 0 -405 2q-33 2 -46 6t-30 20h-67 q-10 -33 -39 -80l-13 -18q-8 -18 -37 -53q-28 -35 -30 -47z" />
<glyph unicode="u" horiz-adv-x="1277" d="M33 1176q55 -31 73.5 -71t22.5 -93q0 -8 2 -62v-67q0 -55 -2 -162q-2 -104 -2 -156q0 -25 2 -71q0 -70 2 -150q2 -117 50 -190.5t122 -109.5t157 -48t177 -12q123 0 210 14t154.5 60t106.5 141.5t39 251.5q0 31 2 63v61q0 141 1 243t7 192q4 76 21.5 109.5t66.5 56.5v16 q-25 0 -80 -4q-88 -4 -125 -4q-20 0 -79 4q-29 2 -78 4v-18q66 -31 85 -63t21 -99q2 -57 2 -176v-265v-69q0 -57 -2 -99q-4 -111 -25.5 -177t-62.5 -101t-99.5 -46t-152.5 -11q-66 0 -115 10t-87.5 41t-63.5 92t-29 160q-4 74 -5 117.5t-1 86.5v170q0 180 8 263 q4 57 23.5 102t64.5 64v18l-102 -6q-72 -4 -102 -4q-57 0 -207 10v-16z" />
<glyph unicode="v" horiz-adv-x="1486" d="M33 1192l4 -18q66 -31 93.5 -64t55.5 -88l4 -10l121 -233q57 -114 103 -216l73 -145l129 -253q45 -91 74 -159q4 -8 19.5 -17t33.5 -9q20 0 36 8t16 12l97 209l97 197l80 165l45 99l88 191q35 75 72 145q39 63 78 105t92 63l10 18q-35 -2 -111 -6q-72 -4 -104 -4 q-63 0 -192 10l-13 -23q45 -6 61.5 -25.5t16.5 -51.5q0 -45 -22 -91l-27 -67l-93 -225l-77 -177l-82 -176l-37 -80q-100 201 -145 299l-25 54l-100 219q-37 80 -70 160q-16 37 -16 86q0 57 35 73l-11 21q-31 -2 -59 -2q-98 -6 -137 -6q-43 0 -140 8q-20 0 -73 4z" />
<glyph unicode="w" horiz-adv-x="1996" d="M33 1200l4 -20q66 -29 94.5 -62t54.5 -86l7 -12l45 -86l103 -203l81 -164q23 -47 98 -190l108 -211q48 -96 74 -158q6 -8 19.5 -16t34.5 -8q18 0 30.5 6t18.5 12l57 121l72 155l61 123l112 -216l85 -177q4 -8 18.5 -17t32.5 -9q20 0 36.5 8t16.5 12l103 218l104 214 l70 141l80 168l125 254l6 15q35 61 74.5 104t97.5 62l8 18q-45 -2 -82 -4q-100 -4 -133 -4q-61 0 -199 10l-12 -22q49 -8 66.5 -28t17.5 -50q0 -45 -23 -90l-88 -207q-76 -184 -114 -266q-27 -51 -78 -162l-43 -94l-148 301l-24 43l39 82q98 209 153 307q31 57 72 102t96 66 l11 18l-113 -6q-72 -4 -105 -4q-74 0 -196 12l-12 -22q47 -8 64 -28t17 -52q0 -33 -22 -86v-2l-55 -131l-31 -76q-45 98 -92 213q-16 41 -17 82q0 55 35 76l-10 18q-131 -6 -203 -6q-43 0 -139 8q-20 0 -74 4l6 -20q61 -27 88 -56.5t56 -81.5q4 -6 12 -22l10 -19l124 -240 q50 -99 93 -194v-2q2 -2 4 -6q-6 -14 -8 -20q-10 -20 -59 -129l-62 -129l-149 303q-43 86 -90 190l-107 244q-18 35 -18 84q0 57 37 76l-10 18q-131 -6 -203 -6q-41 0 -89 3t-124 9z" />
<glyph unicode="x" horiz-adv-x="1419" d="M33 -2q20 2 35 4q133 10 178 10q53 0 200 -12l21 -2v18q-39 20 -39 68q2 25 25 70q51 84 114.5 173t137.5 181l83 -131q96 -156 150 -234q16 -25 26.5 -48t10.5 -42q0 -23 -17 -37v-18q104 10 205 10q49 0 102.5 -2t120.5 -8l-16 22q-57 18 -99 54.5t-81 89.5l-285 395 l-16 25q-12 14 -37 49q-14 23 -25 35l234 280l57 68q47 53 111.5 97t132.5 65l16 20l-116 -6q-76 -4 -99 -4q-80 0 -209 12v-16q18 -25 19 -51q0 -27 -13.5 -53.5t-33.5 -55.5l-72 -100l-104 -142q-74 102 -154 234q-4 6 -16 28q-23 35 -34 57.5t-11 43.5q0 23 16 35l8 16 q-39 -2 -104 -6q-76 -4 -109 -4q-39 0 -84 2t-117 8h-18l14 -18q68 -27 106 -63t79 -93l14 -18l147 -197l138 -182q-12 -14 -33 -43l-232 -291l-110 -137q-76 -88 -199 -129z" />
<glyph unicode="y" horiz-adv-x="1361" d="M33 1196l14 -22q66 -29 102.5 -64t81.5 -92q18 -25 31 -39q57 -74 166 -244l133 -198q0 -262 -2 -394q-2 -45 -26.5 -75.5t-67.5 -51.5v-20q72 6 116 8t81 2q39 0 76 -2l118 -6q8 0 25 -2v20q-94 37 -99 136q-12 164 -12 321q0 74 2 111l161 211l148 192q53 70 105.5 121 t113.5 74l29 20q-70 -4 -137 -12q-43 -6 -64 -6q-35 0 -96 6q-53 4 -90 6l4 -18q25 -23 25 -58q0 -29 -21.5 -66.5t-56.5 -84.5l-4 -6q-92 -133 -201 -263q-43 55 -123 183l-57 88l-21 33q-27 39 -40 66.5t-13 51.5q0 12 10.5 29.5t20.5 26.5l10 18q-37 -2 -102 -8 q-78 -6 -111 -6q-45 0 -97 3t-132 11z" />
<glyph unicode="z" horiz-adv-x="1458" d="M33 20q0 -14 11 -19t30 -5q6 0 18 2h4q233 0 416 4q55 0 154 2q31 0 86 -1t176 -3q106 -2 168.5 -3t93.5 -1q72 0 101.5 24.5t41.5 53.5q8 35 58 96q37 45 36 61q0 4 -12 11.5t-35 7.5q-29 0 -73 -41q-39 -33 -68 -49q-39 -23 -113.5 -37t-159.5 -22.5t-156 -11.5 t-136 -5h-15l-43 -2q-84 -2 -112 -2q-68 0 -92.5 5t-24.5 15q0 6 2 13l981 1032l4 4q4 8 4 10q0 6 -12 14.5t-37 8.5t-272 2q-256 2 -289 2q-53 0 -231 2q-199 4 -287 4q-63 0 -84 -11.5t-21 -31.5q0 -35 -10 -94q-8 -43 -8 -62q0 -6 12.5 -20.5t34.5 -14.5q18 0 27.5 9.5 t19.5 27.5q10 23 21.5 37.5t36.5 26.5q53 25 159.5 36t280.5 11h102q158 0 226 -2l-361 -386l-203 -217l-167 -177l-171 -181l-95 -101q-17 -20 -17 -22z" />
<glyph unicode="&#xa3;" horiz-adv-x="1341" d="M41 -4q23 2 33 2q94 10 150.5 14t97.5 4h182q98 -2 225 -2h305q90 0 119 22.5t39 61.5l2 4q12 47 63 136q43 76 43 100q0 6 -16 17.5t-41 11.5t-49.5 -22.5t-65.5 -70.5q-55 -66 -86 -90q-55 -45 -112.5 -57t-145.5 -12q-59 0 -110 6t-97.5 24.5t-76 52t-31.5 85.5 q-8 170 -12 285.5t-4 258.5q199 0 290 -8q72 -6 123.5 -28.5t81.5 -81.5h88q-4 66 -4 87v76q0 51 8 119q4 35 7 64h-86q-47 -72 -91.5 -93.5t-109.5 -23.5q-31 -2 -92 -2q-68 0 -215 4q2 23 2 70q0 49 -2 129q-4 90 -4 123q0 80 9 138t33.5 103t71.5 70.5t123 25.5 q143 0 211 -26.5t100 -75.5q2 -2 9 -12q10 -23 23 -35t44 -12q25 0 38 10t13 16q0 27 -6 74q-10 63 -10 115q0 18 -24.5 29.5t-61.5 16.5t-72 6t-80 1q-63 0 -215 -10q-20 -2 -59 -4q-131 -8 -215 -40t-129 -85.5t-62.5 -122t-17.5 -162.5q0 -63 10 -203q12 -166 13 -254 v-287q0 -101 -5 -257q-2 -63 -51 -140q-23 -35 -48 -60.5t-50 -39.5v-45z" />
<glyph unicode="&#xad;" d="M41 573h647v105h-647v-105z" />
<glyph unicode="&#x2000;" horiz-adv-x="870" />
<glyph unicode="&#x2001;" horiz-adv-x="1740" />
<glyph unicode="&#x2002;" horiz-adv-x="870" />
<glyph unicode="&#x2003;" horiz-adv-x="1740" />
<glyph unicode="&#x2004;" horiz-adv-x="579" />
<glyph unicode="&#x2005;" horiz-adv-x="434" />
<glyph unicode="&#x2006;" horiz-adv-x="288" />
<glyph unicode="&#x2007;" horiz-adv-x="288" />
<glyph unicode="&#x2008;" horiz-adv-x="217" />
<glyph unicode="&#x2009;" horiz-adv-x="348" />
<glyph unicode="&#x200a;" horiz-adv-x="96" />
<glyph unicode="&#x2010;" d="M41 573h647v105h-647v-105z" />
<glyph unicode="&#x2011;" d="M41 573h647v105h-647v-105z" />
<glyph unicode="&#x2012;" d="M41 573h647v105h-647v-105z" />
<glyph unicode="&#x2013;" horiz-adv-x="1024" d="M41 573v105h942v-105h-942z" />
<glyph unicode="&#x2014;" horiz-adv-x="2048" d="M41 573v105h1966v-105h-1966z" />
<glyph unicode="&#x2018;" horiz-adv-x="407" d="M41 1509q0 -86 23.5 -129t93.5 -84l86 50q-35 25 -35 57v12q2 12 2 17h14q70 0 106 42t36 95q0 25 -18.5 48t-49.5 41.5t-65.5 30t-67.5 11.5q-37 0 -61.5 -19.5t-39 -49t-19.5 -62.5t-5 -60z" />
<glyph unicode="&#x2019;" horiz-adv-x="407" d="M41 1569q0 -53 36 -95t105 -42h15q0 -4 2 -17v-12q0 -33 -35 -57l86 -50q70 41 93.5 84t23.5 129q0 27 -5.5 60t-19.5 62.5t-38.5 49t-61.5 19.5q-31 0 -67 -11.5t-66.5 -30t-49 -41.5t-18.5 -48z" />
<glyph unicode="&#x201c;" horiz-adv-x="708" d="M41 1509q0 -88 22.5 -130t94.5 -83l86 50q-35 25 -35 57v12q2 12 2 17h14q82 0 117 57q2 -74 26.5 -114t90.5 -81l86 49q-35 25 -35 58v12q2 12 2 17h16q68 0 104 41.5t36 95.5q0 25 -18.5 48t-49.5 41.5t-65.5 30t-67.5 11.5q-43 0 -69.5 -26.5t-41.5 -69.5 q-20 39 -78.5 68.5t-111.5 29.5q-37 0 -62.5 -19.5t-39 -49t-18.5 -61.5t-5 -61z" />
<glyph unicode="&#x201d;" horiz-adv-x="714" d="M41 1569q0 -53 36 -95t103 -42h17q0 -4 2 -17v-12q0 -33 -35 -57l86 -50q68 41 91.5 81t25.5 118q16 -31 46.5 -48t75.5 -17h15q0 -4 2 -17v-12q0 -33 -35 -58l86 -49q72 41 94.5 83t22.5 130q0 27 -5 59.5t-19.5 62.5t-39 49.5t-61.5 19.5q-55 0 -114.5 -33t-78.5 -72 q-12 47 -39.5 77t-74.5 30q-31 0 -67 -11.5t-66.5 -30t-49 -41.5t-18.5 -48z" />
<glyph unicode="&#x2026;" horiz-adv-x="1198" d="M840 135q0 -51 36 -93t101 -42q66 0 123 43t57 90q0 57 -25.5 93t-94.5 36q-31 0 -66 -11t-63 -30q-68 -41 -68 -86zM440 135q0 -51 36 -93t101 -42q66 0 123 43t57 90q0 57 -25.5 93t-94.5 36q-31 0 -66 -11t-63 -30q-68 -41 -68 -86zM41 135q0 -51 36 -93t101 -42 q66 0 123 43t57 90q0 57 -25.5 93t-94.5 36q-31 0 -66 -11t-63 -30q-68 -41 -68 -86z" />
<glyph unicode="&#x202f;" horiz-adv-x="348" />
<glyph unicode="&#x205f;" horiz-adv-x="434" />
<glyph unicode="&#x2122;" horiz-adv-x="3837" d="M1665 -8q82 12 133 16t98 4q53 0 128 -5t147 -15l-15 35q-57 25 -82.5 64.5t-25.5 103.5q0 31 2 41l109 833l282 -588l124 -260q40 -84 55 -113l26 -50l18 -35q10 -16 22.5 -24.5t39.5 -8.5q20 0 35.5 10t21.5 18l432 1045l123 -907v-9q2 -4 2 -6q0 -29 -13 -44t-38 -34 q-35 -25 -35 -43v-28q90 14 153.5 19t125.5 5q55 0 117.5 -6t146.5 -20v33q-74 29 -118 80t-56 130l-178 1217q0 4 -2 14v17q0 59 31.5 117.5t84.5 87.5v24l-90 -6q-74 -4 -105.5 -5t-76.5 -1l-102 -244l-437 -1030l-583 1274q-84 0 -139.5 2t-133.5 10v-24 q125 -88 125 -209l-162 -1192q-12 -98 -54 -168t-109 -92zM41 1440q0 -4 18.5 -13.5t36.5 -9.5q27 0 47.5 12.5t42.5 32.5q10 10 15 13q37 31 70.5 47t58.5 22q82 18 166 24.5t190 6.5l2 -102q4 -150 4 -295v-361q0 -408 -4 -612q-2 -66 -32.5 -110t-86.5 -72v-29 q86 8 142.5 11t107.5 3q55 0 113.5 -3t154.5 -11v29q-115 55 -120 194q-16 324 -17 606v133q-2 82 -2 150q0 203 10 336l11 133h161q106 0 156 -2q20 -2 37.5 -15.5t24.5 -41.5q2 -4 4 -23q4 -35 14 -53.5t39 -18.5q14 0 37.5 9.5t25.5 21.5q10 45 60 145q49 96 55 136h-70 q-14 -4 -40 -15q-55 -20 -89 -22l-170 -4q-236 -8 -346 -9q-334 0 -501 3q-41 2 -57.5 8t-37.5 28h-86q-10 -43 -45 -108q-12 -25 -14 -31q-12 -27 -49 -78q-35 -49 -37 -65z" />
<glyph unicode="&#xe000;" horiz-adv-x="1200" d="M0 1200h1200v-1200h-1200v1200z" />
<glyph unicode="&#xfb01;" horiz-adv-x="1449" d="M991 1178q53 -31 71.5 -69t22.5 -93q6 -119 10 -232.5t4 -210.5q0 -285 -4 -428q-2 -45 -26.5 -76.5t-67.5 -52.5v-18q72 6 116 8t83 2q37 0 74 -2l118 -6q6 0 25 -2v18q-92 41 -99 138q-12 283 -12 424v170q0 182 6 264q6 57 25.5 101t64.5 65v16l-106 -6q-66 -4 -98 -4 q-41 0 -88.5 3t-118.5 9v-18zM33 1202l4 -24q66 -27 94.5 -67t30.5 -87q8 -102 11 -215t3 -225q0 -223 -6 -439q-2 -88 -94 -129v-18q143 10 200 10q39 0 77 -2t126 -8h13v18q-92 41 -97 138q-6 106 -10 228t-4 220h39h119q57 0 79 -2q61 -4 95.5 -17.5t56.5 -54.5l80 -4 q-4 72 -6 105v22v-22v41v-19q2 16 4 43q6 29 6 51h-72q-33 -43 -59.5 -53t-79.5 -12h-14q-16 -2 -51 -2q-41 0 -117 4q-25 0 -70 2q0 37 -2 107q-2 68 -2 100q0 66 6 129l2 20q2 53 8 76q27 2 93 6q55 4 75 4q115 0 171.5 -19.5t82.5 -53.5q2 -2 4 -9q8 -14 19.5 -23 t34.5 -9q20 0 31.5 7t11.5 11q0 18 -6 53q-6 45 -7 80q0 12 -19.5 19.5t-48 11.5t-58 5t-66.5 1q-51 0 -166 -6l-53 -4l-103 -4q-66 -2 -82 -2q-20 0 -69 3t-121 9z" />
<glyph unicode="&#xfb02;" horiz-adv-x="1990" d="M991 20l2 -24l41 2q129 10 178 10q59 0 156 -4q72 -4 111.5 -5t94.5 -1q57 0 162 6l51 4q41 2 63.5 20.5t31.5 41.5q8 31 43 98q33 63 32 82q0 8 -7 16t-36 8q-20 0 -36.5 -15t-42.5 -48q-41 -55 -72 -76q-47 -35 -109.5 -50t-124.5 -15q-90 0 -142 26.5t-56 98.5 q-6 113 -9.5 198.5t-3.5 186.5v170q0 180 5 262q8 59 27.5 103t62.5 63v18q-43 -2 -103 -6q-72 -4 -102 -4q-39 0 -87 3t-104 5q-8 2 -16 2v-16q55 -31 73.5 -71t22.5 -93q6 -129 9.5 -238.5t3.5 -202.5v-202q0 -72 -5 -180q-2 -45 -38.5 -101t-75.5 -72zM33 1202l4 -24 q66 -27 94.5 -67t30.5 -87q8 -102 11 -215t3 -225q0 -223 -6 -439q-2 -88 -94 -129v-18q143 10 200 10q39 0 77 -2t126 -8h13v18q-92 41 -97 138q-6 106 -10 228t-4 220h39h119q57 0 79 -2q61 -4 95.5 -17.5t56.5 -54.5l80 -4q-4 72 -6 105v22v-22v41v-19q2 16 4 43 q6 29 6 51h-72q-33 -43 -59.5 -53t-79.5 -12h-14q-16 -2 -51 -2q-41 0 -117 4q-25 0 -70 2q0 37 -2 107q-2 68 -2 100q0 66 6 129l2 20q2 53 8 76q27 2 93 6q55 4 75 4q115 0 171.5 -19.5t82.5 -53.5q2 -2 4 -9q8 -14 19.5 -23t34.5 -9q20 0 31.5 7t11.5 11q0 18 -6 53 q-6 45 -7 80q0 12 -19.5 19.5t-48 11.5t-58 5t-66.5 1q-51 0 -166 -6l-53 -4l-103 -4q-66 -2 -82 -2q-20 0 -69 3t-121 9z" />
<glyph unicode="&#xfb03;" horiz-adv-x="2408" d="M1950 1178q53 -31 71.5 -69t22.5 -93q6 -119 10 -232.5t4 -210.5q0 -285 -4 -428q-2 -45 -26.5 -76.5t-67.5 -52.5v-18q72 6 116 8t83 2q37 0 74 -2l118 -6q6 0 25 -2v18q-92 41 -99 138q-12 283 -12 424v170q0 182 6 264q6 57 25.5 101t64.5 65v16l-106 -6 q-66 -4 -98 -4q-41 0 -88.5 3t-118.5 9v-18zM991 1202l4 -24q66 -27 94.5 -67t30.5 -87q8 -102 11 -215t3 -225q0 -223 -6 -439q-2 -88 -94 -129v-18q143 10 200 10q39 0 77 -2t126 -8h13v18q-92 41 -97 138q-6 106 -10 228t-4 220h39h119q57 0 79 -2q61 -4 95.5 -17.5 t56.5 -54.5l80 -4q-4 72 -6 105v22v-22v41v-19q2 16 4 43q6 29 6 51h-72q-33 -43 -59.5 -53t-79.5 -12h-14q-16 -2 -51 -2q-41 0 -117 4q-25 0 -70 2q0 37 -2 107q-2 68 -2 100q0 66 6 129l2 20q2 53 8 76q27 2 93 6q55 4 75 4q115 0 171.5 -19.5t82.5 -53.5q2 -2 4 -9 q8 -14 19.5 -23t34.5 -9q20 0 31.5 7t11.5 11q0 18 -6 53q-6 45 -7 80q0 12 -19.5 19.5t-48 11.5t-58 5t-66.5 1q-51 0 -166 -6l-53 -4l-103 -4q-66 -2 -82 -2q-20 0 -69 3t-121 9zM33 1202l4 -24q66 -27 94.5 -67t30.5 -87q8 -102 11 -215t3 -225q0 -223 -6 -439 q-2 -88 -94 -129v-18q143 10 200 10q39 0 77 -2t126 -8h13v18q-92 41 -97 138q-6 106 -10 228t-4 220h39h119q57 0 79 -2q61 -4 95.5 -17.5t56.5 -54.5l80 -4q-4 72 -6 105v22v-22v41v-19q2 16 4 43q6 29 6 51h-72q-33 -43 -59.5 -53t-79.5 -12h-14q-16 -2 -51 -2 q-41 0 -117 4q-25 0 -70 2q0 37 -2 107q-2 68 -2 100q0 66 6 129l2 20q2 53 8 76q27 2 93 6q55 4 75 4q115 0 171.5 -19.5t82.5 -53.5q2 -2 4 -9q8 -14 19.5 -23t34.5 -9q20 0 31.5 7t11.5 11q0 18 -6 53q-6 45 -7 80q0 12 -19.5 19.5t-48 11.5t-58 5t-66.5 1q-51 0 -166 -6 l-53 -4l-103 -4q-66 -2 -82 -2q-20 0 -69 3t-121 9z" />
<glyph unicode="&#xfb04;" horiz-adv-x="2949" d="M1950 20l2 -24l41 2q129 10 178 10q59 0 156 -4q72 -4 111.5 -5t94.5 -1q57 0 162 6l51 4q41 2 63.5 20.5t31.5 41.5q8 31 43 98q33 63 32 82q0 8 -7 16t-36 8q-20 0 -36.5 -15t-42.5 -48q-41 -55 -72 -76q-47 -35 -109.5 -50t-124.5 -15q-90 0 -142 26.5t-56 98.5 q-6 113 -9.5 198.5t-3.5 186.5v170q0 180 5 262q8 59 27.5 103t62.5 63v18q-43 -2 -103 -6q-72 -4 -102 -4q-39 0 -87 3t-104 5q-8 2 -16 2v-16q55 -31 73.5 -71t22.5 -93q6 -129 9.5 -238.5t3.5 -202.5v-202q0 -72 -5 -180q-2 -45 -38.5 -101t-75.5 -72zM991 1202l4 -24 q66 -27 94.5 -67t30.5 -87q8 -102 11 -215t3 -225q0 -223 -6 -439q-2 -88 -94 -129v-18q143 10 200 10q39 0 77 -2t126 -8h13v18q-92 41 -97 138q-6 106 -10 228t-4 220h39h119q57 0 79 -2q61 -4 95.5 -17.5t56.5 -54.5l80 -4q-4 72 -6 105v22v-22v41v-19q2 16 4 43 q6 29 6 51h-72q-33 -43 -59.5 -53t-79.5 -12h-14q-16 -2 -51 -2q-41 0 -117 4q-25 0 -70 2q0 37 -2 107q-2 68 -2 100q0 66 6 129l2 20q2 53 8 76q27 2 93 6q55 4 75 4q115 0 171.5 -19.5t82.5 -53.5q2 -2 4 -9q8 -14 19.5 -23t34.5 -9q20 0 31.5 7t11.5 11q0 18 -6 53 q-6 45 -7 80q0 12 -19.5 19.5t-48 11.5t-58 5t-66.5 1q-51 0 -166 -6l-53 -4l-103 -4q-66 -2 -82 -2q-20 0 -69 3t-121 9zM33 1202l4 -24q66 -27 94.5 -67t30.5 -87q8 -102 11 -215t3 -225q0 -223 -6 -439q-2 -88 -94 -129v-18q143 10 200 10q39 0 77 -2t126 -8h13v18 q-92 41 -97 138q-6 106 -10 228t-4 220h39h119q57 0 79 -2q61 -4 95.5 -17.5t56.5 -54.5l80 -4q-4 72 -6 105v22v-22v41v-19q2 16 4 43q6 29 6 51h-72q-33 -43 -59.5 -53t-79.5 -12h-14q-16 -2 -51 -2q-41 0 -117 4q-25 0 -70 2q0 37 -2 107q-2 68 -2 100q0 66 6 129l2 20 q2 53 8 76q27 2 93 6q55 4 75 4q115 0 171.5 -19.5t82.5 -53.5q2 -2 4 -9q8 -14 19.5 -23t34.5 -9q20 0 31.5 7t11.5 11q0 18 -6 53q-6 45 -7 80q0 12 -19.5 19.5t-48 11.5t-58 5t-66.5 1q-51 0 -166 -6l-53 -4l-103 -4q-66 -2 -82 -2q-20 0 -69 3t-121 9z" />
</font>
</defs>
</svg>
