<?xml version="1.0" standalone="no"?>
<!DOCTYPE svg PUBLIC "-//W3C//DTD SVG 1.1//EN" "http://www.w3.org/Graphics/SVG/1.1/DTD/svg11.dtd" >
<svg xmlns="http://www.w3.org/2000/svg">
<metadata>
This is a custom SVG webfont generated by Font Squirrel.
Copyright   : Imperator Roman C Copyright PJL 96
</metadata>
<defs>
<font id="webfontZ4IDcQ3T" horiz-adv-x="342" >
<font-face units-per-em="2048" ascent="1638" descent="-410" />
<missing-glyph horiz-adv-x="526" />
<glyph unicode=" "  horiz-adv-x="526" />
<glyph unicode="&#x09;" horiz-adv-x="526" />
<glyph unicode="&#xa0;" horiz-adv-x="526" />
<glyph unicode="!" d="M41 139q0 -55 27.5 -95t78.5 -40q55 0 104.5 41t49.5 92q0 59 -20.5 94t-69.5 35q-57 0 -113.5 -39t-56.5 -88zM88 1296q0 -223 9 -396t22 -347q10 -127 10 -160q0 -45 41 -45q16 0 31.5 16.5t15.5 36.5q0 29 12 144q16 176 27.5 349t11.5 402q0 147 -1 209t-8 92.5 t-20.5 40t-43.5 9.5q-37 0 -59.5 -29t-33 -79t-12.5 -104.5t-2 -138.5z" />
<glyph unicode="&#x22;" horiz-adv-x="602" d="M41 1696l12 -160q4 -45 27.5 -73.5t66.5 -28.5q39 0 66 26.5t29 65.5l14 170q-20 -4 -52 -7t-57 -3q-31 0 -58.5 2t-47.5 8zM346 1696l12 -160q4 -45 28 -73.5t67 -28.5q39 0 65.5 26.5t28.5 65.5l14 170q-20 -4 -52 -7t-56 -3q-31 0 -59 2t-48 8z" />
<glyph unicode="$" horiz-adv-x="737" d="M41 74q0 -37 72.5 -58.5t165.5 -27.5l-15 -150h84l14 150q59 4 117 24.5t107 58.5t78.5 96t29.5 138q0 61 -23.5 108.5t-61.5 82t-77.5 57t-105.5 53.5l31 303q53 -12 100 -47q23 -16 57 -55q33 -35 43 -35q12 0 13 25v139q0 39 -63.5 61.5t-137.5 26.5l18 180h-84 l-18 -184q-156 -14 -239 -97t-83 -198q0 -63 23 -111.5t58.5 -81t74.5 -54t103 -48.5l2 -2l-33 -324q-92 18 -148 68q-16 14 -43 57q-23 39 -32 39q-20 0 -21 -22q0 -23 -2 -84q-4 -55 -4 -88zM236 784q0 49 39.5 90t99.5 46l-29 -275q-53 29 -81.5 61.5t-28.5 77.5zM375 98 l28 291q57 -31 88 -67.5t31 -88.5q0 -53 -45 -91t-102 -44z" />
<glyph unicode="%" horiz-adv-x="1249" d="M41 1239q0 -92 17.5 -172t55.5 -141.5t96 -97t138 -35.5q156 0 253 118.5t97 296.5q0 92 -26.5 177t-73.5 147q104 -14 186 -14q57 0 160 36q90 31 137 37l-1007 -1593h67l1039 1644h-66q-59 0 -164 -30q-96 -31 -147 -31q-53 0 -100.5 9t-108.5 26q-70 18 -114 26.5 t-97 8.5q-154 0 -248 -117t-94 -295zM217 1292q0 143 29.5 207t111.5 64q45 0 79 -34t54.5 -92.5t29.5 -128t9 -141.5q0 -141 -37.5 -212.5t-121.5 -71.5q-41 0 -72 35.5t-48.5 96t-25.5 132t-8 145.5zM551 430q0 -92 17.5 -172t55.5 -141.5t96 -97t138 -35.5 q156 0 253 118.5t97 296.5q0 86 -23.5 167t-66.5 143.5t-101.5 97.5t-123.5 35q-154 0 -248 -117t-94 -295zM727 483q0 143 29.5 207t111.5 64q45 0 79 -34t54.5 -92.5t29.5 -128t9 -141.5q0 -141 -37.5 -212.5t-121.5 -71.5q-41 0 -72 35.5t-48.5 96t-25.5 132t-8 145.5z " />
<glyph unicode="&#x26;" horiz-adv-x="1665" d="M41 367q0 -72 40 -142.5t105.5 -125t142.5 -86t144 -31.5q57 0 117.5 22.5t117 59t104.5 79.5t93 90q78 -121 202 -185t263 -64q63 0 135 35.5t119 76.5l-27 41q-41 -27 -96 -36t-129 -9q-84 0 -150.5 56.5t-154.5 193.5l-27 41q68 76 128.5 171t107.5 198 q41 90 115.5 149.5t162.5 95.5l7 15l-76 -4q-100 -8 -146 -9q-86 0 -209 13l-6 -15q53 -12 76 -41.5t23 -72.5q0 -31 -9.5 -68t-21.5 -63q-88 -188 -191 -303l-282 489q61 23 126.5 67t121 102t89.5 125.5t34 133.5q0 129 -94.5 204t-207.5 75q-104 0 -177.5 -36t-119 -93.5 t-65.5 -122t-20 -125.5q0 -74 16 -135.5t55 -128.5l53 -97q-231 -100 -360 -233t-129 -307zM270 457q0 131 79 239.5t210 161.5l315 -565q-86 -74 -174 -100.5t-198 -26.5q-49 0 -91 27.5t-74 71.5t-49.5 95.5t-17.5 96.5zM551 1329q0 33 17.5 73t47 77t69.5 59.5t83 22.5 q39 0 70.5 -5.5t60.5 -25t46.5 -58t17.5 -102.5q0 -113 -77 -222.5t-194 -166.5l-88 149q-29 49 -41 93.5t-12 105.5z" />
<glyph unicode="'" horiz-adv-x="296" d="M41 1696l12 -160q4 -45 27.5 -73.5t66.5 -28.5q39 0 66 26.5t29 65.5l14 170q-20 -4 -52 -7t-57 -3q-31 0 -58.5 2t-47.5 8z" />
<glyph unicode="(" horiz-adv-x="378" d="M41 891q0 -215 59.5 -447.5t161.5 -484.5h76q-78 203 -105.5 431t-27.5 501q0 258 26.5 461.5t106.5 388.5h-76q-102 -227 -161.5 -439t-59.5 -411z" />
<glyph unicode=")" horiz-adv-x="378" d="M41 -41h76q102 252 161.5 484.5t59.5 447.5q0 199 -59.5 410.5t-161.5 439.5h-76q80 -184 106.5 -388t26.5 -462q0 -272 -27.5 -500.5t-105.5 -431.5z" />
<glyph unicode="*" horiz-adv-x="319" d="M43 1622q0 -20 39 -57q-35 -33 -35 -56q0 -2 2 -4v-4q6 -10 29 -10q18 0 43 8q14 -63 39 -63q23 0 37 61q31 -10 51 -10q18 0 24 10v4q2 2 2 4q0 25 -38 60q43 37 43 59v4l-3 4q-6 10 -26 10q-18 0 -51 -10q-14 68 -39 68t-39 -70q-33 10 -51 10t-25 -10v-4q-2 -2 -2 -4z " />
<glyph unicode="," d="M41 135q0 -55 27.5 -95t78.5 -40q23 0 54 10q10 -35 10 -102q0 -49 -35 -96l55 -31q41 25 55.5 100.5t14.5 190.5q0 70 -21.5 130t-68.5 60q-57 0 -113.5 -39t-56.5 -88z" />
<glyph unicode="-" horiz-adv-x="774" d="M41 573h692v105h-692v-105z" />
<glyph unicode="." d="M41 135q0 -55 27.5 -95t78.5 -40q55 0 104.5 41t49.5 92q0 59 -20.5 94t-69.5 35q-57 0 -113.5 -39t-56.5 -88z" />
<glyph unicode="/" horiz-adv-x="563" d="M41 -2h55l426 1649h-55z" />
<glyph unicode="0" horiz-adv-x="1308" d="M41 815q0 -184 29.5 -334.5t98.5 -264.5t182.5 -176.5t275.5 -62.5q154 0 274.5 63.5t202.5 178.5t123 267.5t41 328.5q0 186 -28 338t-93.5 268.5t-178 181t-276.5 64.5q-143 0 -264 -65.5t-208 -183.5t-133 -273.5t-46 -329.5zM301 811q0 162 21.5 299t66.5 242.5 t115.5 165t167.5 59.5q117 0 188.5 -58.5t107.5 -160t47 -231.5t11 -312q0 -156 -23.5 -294t-71.5 -241.5t-118 -162t-158 -58.5q-106 0 -175.5 57.5t-108.5 158t-54.5 232.5t-15.5 304z" />
<glyph unicode="1" horiz-adv-x="595" d="M41 1354q0 -12 10 -13q8 0 33 15q43 20 59 20q18 0 35 -22.5t27 -56t15 -65.5t7 -54q4 -63 6.5 -137t2.5 -222q0 -414 -5 -620q-2 -61 -34.5 -108.5t-83.5 -74.5v-16q113 10 211 10t231 -10v16q-59 27 -89 77t-34 118q-16 328 -16 614q0 98 6 344q6 203 6 281 q0 84 -11 142.5t-40 58.5q-12 0 -70 -60q-63 -66 -100 -94q-33 -27 -98 -63q-68 -39 -68 -56v-24z" />
<glyph unicode="2" horiz-adv-x="1138" d="M41 1300q0 -63 46 -111t106 -48q61 0 108 38t47 121q0 45 -18.5 68t-53.5 41q-25 14 -37 26.5t-12 32.5q0 41 71 66t140 25q100 0 165 -38t97.5 -96.5t44 -121t11.5 -125.5q0 -111 -37 -220.5t-98.5 -211t-130 -189.5t-183.5 -223q-162 -190 -231 -289q-8 -12 -8 -20 q0 -25 32 -25h818q98 0 129 82q10 27 12 35q39 104 39 149q0 6 -5.5 16.5t-11.5 10.5t-41 -35q-57 -57 -96 -84q-45 -31 -92 -51.5t-84 -20.5h-502q55 86 124 170l177 209l176 208q68 83 128.5 177.5t95 191.5t34.5 193q0 76 -31.5 150t-91 133t-144.5 93t-187 34 q-119 0 -215 -37t-161 -94t-97.5 -120t-32.5 -110z" />
<glyph unicode="3" horiz-adv-x="1193" d="M41 299q0 -68 37 -128t101.5 -104t148.5 -69t174 -25q152 0 273.5 49.5t205.5 134.5t128 191.5t44 216.5q0 68 -21.5 135.5t-65.5 125t-111.5 93t-157.5 42.5q4 2 39 30q63 45 101 78t71.5 75t53 94t19.5 120q0 137 -108.5 221t-315.5 84q-78 0 -175 -25.5t-183 -65.5 t-140.5 -85t-54.5 -80q0 -29 19 -29q14 0 67 31q90 53 183.5 88t230.5 35q51 0 92 -23.5t70 -61.5t44 -81t15 -84q0 -74 -35.5 -145.5t-105.5 -124.5q-47 -35 -156 -82q-61 -25 -90 -41q-41 -23 -66.5 -54.5t-25.5 -56.5q0 -14 23 -14q4 0 6 2h4q2 0 12 8q29 23 77 39 t144 16q72 0 130.5 -30.5t97.5 -81.5t58.5 -110.5t19.5 -114.5q0 -80 -13.5 -152t-57.5 -136.5t-134 -106.5t-236 -42q-45 0 -94 17.5t-92 44t-69.5 54.5t-26.5 46t11 24.5t38 10.5q47 6 74.5 29.5t27.5 99.5q0 47 -27.5 79t-95.5 32q-84 0 -133 -53.5t-49 -139.5z" />
<glyph unicode="4" horiz-adv-x="1312" d="M41 485q0 -18 19.5 -28.5t39.5 -10.5h713q0 -84 -4 -247q-2 -61 -35 -108.5t-84 -74.5v-16q113 10 211 10t232 -10v16q-59 27 -89 77t-34 118q-8 154 -11 235h93q98 0 129 82q10 27 12 35q39 104 39 150q0 6 -5 16t-12 10q-6 0 -41 -34q-57 -57 -96 -84q-70 -47 -123 -64 q-2 90 -2 268v760q0 47 -55 47h-125q-20 0 -31.5 -10t-25.5 -31l-709 -1085q-6 -11 -6 -21zM201 549l583 876q14 20 21 21q8 0 8 -27v-600v-270h-612z" />
<glyph unicode="5" horiz-adv-x="1296" d="M41 317q0 -104 53 -173.5t131 -106.5t154 -50.5t131 -13.5q141 0 256 52.5t191.5 140.5t115.5 195.5t39 216.5q0 121 -47 214t-125 153.5t-171 90t-187 29.5q-141 0 -248 -59l207 526h489q74 0 111 -32t65 -83q20 -37 33 -37q16 0 16 35v178q0 18 -13 36t-30 18h-712 q-20 0 -35.5 -18.5t-26.5 -43.5l-293 -774v-4q-2 -2 -2 -4q0 -10 12.5 -16.5t26.5 -6.5q6 0 35 17q59 31 118.5 52t131.5 21q76 0 153.5 -24.5t143 -76.5t104.5 -133t39 -190q0 -156 -104.5 -268t-296.5 -112q-35 0 -87 12t-100.5 31.5t-81 43t-32.5 46.5q0 12 8 17t27 9 q25 8 34 15q25 16 39.5 47.5t14.5 64.5q0 70 -40 106t-95 36q-70 0 -111 -55.5t-41 -121.5z" />
<glyph unicode="6" horiz-adv-x="1212" d="M41 725q0 -367 148.5 -561.5t431.5 -194.5q137 0 241.5 47t173 130t102 189.5t33.5 225.5q0 115 -33.5 212t-99 168t-156.5 110t-204 39q-135 0 -220 -53.5t-163 -151.5v47q0 100 25.5 209.5t80 208t138.5 159t194 60.5q66 0 120 -14.5t54 -51.5q0 -10 -24 -20 q-35 -14 -56.5 -39t-21.5 -78q0 -43 41 -83t92 -40t97 48t46 100q0 70 -31.5 120t-85 79.5t-113.5 44t-118 14.5q-154 0 -282.5 -83t-220 -219.5t-140.5 -300t-49 -321.5zM305 528q0 203 96 334q47 66 112 100.5t140 34.5q129 0 207 -132t78 -337q0 -96 -26.5 -185 t-72.5 -157.5t-106.5 -106.5t-124.5 -38q-63 0 -118.5 38t-97.5 105.5t-64.5 156.5t-22.5 187z" />
<glyph unicode="7" horiz-adv-x="1132" d="M41 1401q0 27 29 86q33 66 32 102q0 16 13.5 34.5t29.5 18.5h893q18 0 36 -13t18 -27q0 -6 -7 -13q-172 -154 -282.5 -331t-167.5 -361t-77.5 -362.5t-20.5 -374.5q0 -68 -4.5 -114t-22.5 -46h-176q-20 0 -26.5 41t-6.5 115q0 346 154.5 687t427.5 685h-555 q-63 0 -103.5 -26.5t-81.5 -76.5q-27 -31 -43 -44t-37 -13q-6 0 -14 11.5t-8 21.5z" />
<glyph unicode="8" horiz-adv-x="1212" d="M41 397q0 -96 26.5 -171.5t89 -131t171 -85t268.5 -29.5q113 0 217.5 40.5t185 111.5t126.5 158t46 177q0 74 -31.5 143.5t-87 129t-126 104.5t-148.5 74q80 35 136.5 64.5t104.5 71.5t76.5 97t28.5 125q0 184 -119.5 283.5t-332.5 99.5q-109 0 -209.5 -26.5t-180 -82 t-125.5 -140.5t-46 -196q0 -113 71.5 -223t190.5 -172q-147 -55 -239.5 -171t-92.5 -251zM236 420q0 76 24.5 139.5t61 108.5t72.5 69.5t55 24.5q76 0 168 -33t174.5 -89t134 -129t51.5 -149t-37 -135t-99.5 -98t-138 -58.5t-153.5 -19.5q-147 0 -230 102.5t-83 266.5z M315 1327q0 127 100.5 193.5t241.5 66.5q129 0 210 -85t81 -220q0 -63 -23.5 -120.5t-61.5 -101.5t-80 -68.5t-76 -24.5q-63 0 -132 30.5t-128.5 83t-95.5 116.5t-36 130z" />
<glyph unicode="9" horiz-adv-x="1212" d="M41 1055q0 -115 34 -211t99.5 -168t156.5 -111t204 -39q135 0 220 53.5t163 151.5v-47q0 -100 -26 -209.5t-79 -208t-138 -159t-196 -60.5q-66 0 -120 14.5t-54 51.5q0 10 27 20q33 14 54.5 39t21.5 78q0 43 -41 83t-93 40q-51 0 -97 -48.5t-46 -99.5q0 -70 33 -120 t85 -79.5t112.5 -44t117.5 -14.5q154 0 283 83t221 219.5t140 300t48 321.5q0 367 -148.5 561.5t-430.5 194.5q-137 0 -241.5 -47.5t-173 -130.5t-102.5 -189t-34 -225zM274 1087q0 96 27 185.5t73 158t106.5 106.5t123.5 38t119.5 -38t97.5 -105.5t63.5 -156.5t22.5 -188 q0 -203 -96 -333q-47 -66 -110.5 -101t-141.5 -35q-129 0 -207 132t-78 337z" />
<glyph unicode=":" d="M41 135q0 -55 27.5 -95t78.5 -40q55 0 104.5 41t49.5 92q0 59 -20.5 94t-69.5 35q-57 0 -113.5 -39t-56.5 -88zM41 836q0 -55 27.5 -95.5t78.5 -40.5q55 0 104.5 41t49.5 93q0 59 -20.5 94t-69.5 35q-57 0 -113.5 -39t-56.5 -88z" />
<glyph unicode=";" d="M41 135q0 -55 27.5 -95t78.5 -40q23 0 54 10q10 -35 10 -102q0 -49 -35 -96l55 -31q41 25 55.5 100.5t14.5 190.5q0 70 -21.5 130t-68.5 60q-57 0 -113.5 -39t-56.5 -88zM41 836q0 -55 27.5 -95.5t78.5 -40.5q55 0 104.5 41t49.5 93q0 59 -20.5 94t-69.5 35 q-57 0 -113.5 -39t-56.5 -88z" />
<glyph unicode="?" horiz-adv-x="1132" d="M41 135q0 -55 27.5 -95t78.5 -40q55 0 104.5 41t49.5 92q0 59 -20.5 94t-69.5 35q-57 0 -113.5 -39t-56.5 -88zM43 1366q0 -14 8 -27.5t21 -13.5q12 0 53 41l64 58q30 26 76 51.5t109.5 42t141.5 16.5q57 0 115.5 -16.5t109 -51t80 -87t29.5 -122.5q0 -84 -24.5 -147 t-66.5 -108.5t-92.5 -78t-125.5 -73.5l-21 -12q-88 -49 -147.5 -88t-109.5 -90.5t-79.5 -118t-29.5 -148.5q0 -45 41 -45q16 0 31.5 16.5t15.5 36.5q0 66 30.5 117t82 91t109.5 71t161 76q113 51 185.5 90t138 93t104.5 129t39 171q0 119 -40 200t-106.5 126t-145.5 63.5 t-163 18.5q-143 0 -275.5 -43t-218.5 -111l-6 -6q-49 -37 -71.5 -63.5t-22.5 -57.5z" />
<glyph unicode="@" horiz-adv-x="1699" d="M41 854q0 -172 62.5 -327.5t175 -273.5t260 -183.5t311.5 -65.5q121 0 225.5 26.5t179.5 88.5q39 31 39 49q0 12 -15 18.5t-36 6.5q-33 0 -45 -9q-20 -12 -60 -30.5t-91.5 -37t-102.5 -29.5t-94 -11q-121 0 -229.5 60.5t-190.5 168t-128 249.5t-46 300t46 300t128 249.5 t190.5 168t229.5 60.5t229.5 -59.5t190.5 -168t128 -250.5t46 -300q0 -150 -39 -274q-6 -23 -22.5 -59t-37 -67.5t-43 -54t-42.5 -22.5q-51 0 -73 44t-26 122q-14 276 -16 499v78q0 84 -17.5 133.5t-50.5 73t-73.5 30.5t-102.5 7q-72 0 -142.5 -19.5t-129.5 -54.5 q-63 -37 -100 -85t-37 -103q0 -49 69 -86q45 -25 86 -25q18 0 36.5 13.5t18.5 29.5q0 12 -6 39t-6 39q0 29 15.5 58.5t41 55t57.5 41t62 15.5q41 0 70 -39t29 -102v-180q-57 -33 -193 -82q-78 -29 -130 -52.5t-96 -56.5t-70.5 -80t-26.5 -110q0 -49 23.5 -94.5t62 -79 t89 -52t101.5 -18.5t116.5 27.5t127.5 68.5q25 -47 61.5 -74.5t81.5 -40t90 -15.5t113 -3q147 0 244 160q29 39 57 125q43 139 43 270q0 172 -62.5 327.5t-175 273.5t-260 183.5t-311.5 65.5t-311.5 -65.5t-260 -183.5t-175 -273.5t-62.5 -327.5zM659 623q0 61 64.5 108 t185.5 109l56 28q0 -217 -2 -309q-31 -39 -71 -65.5t-79 -28.5q-74 0 -114 50.5t-40 107.5z" />
<glyph unicode="A" horiz-adv-x="1732" d="M41 0q90 12 182 12q84 0 166 -12v12q-37 37 -37 80q0 33 25 96l182 476q131 14 285 14q113 0 270 -14l160 -439q6 -16 11 -38.5t5 -41.5q0 -27 -37 -77q-29 -39 -28 -56v-12q121 18 241 18q113 0 226 -18v14q-123 49 -185 205l-493 1237l-94 240h-56q-57 0 -127.5 3 t-118.5 7l5 -14q68 -45 111.5 -107.5t43.5 -122.5q0 -16 -6 -35l-496 -1198q-70 -168 -225 -217zM612 762v10l236 578h6l217 -578v-10q-113 -6 -231 -6q-117 0 -228 6z" />
<glyph unicode="B" horiz-adv-x="1288" d="M41 0q47 4 114.5 7t123.5 3q33 0 155 -2q176 -4 234 -4q115 0 202.5 12.5t153.5 53.5q104 66 163.5 179t59.5 218q0 102 -41 191.5t-123 152.5q-49 39 -121.5 67.5t-156.5 49.5q100 63 164.5 160.5t66.5 222.5q0 98 -39 170.5t-99 118t-125.5 66t-119.5 20.5 q-35 0 -114 -3q-176 -4 -265 -4q-49 0 -108.5 3.5t-118.5 9.5v-19q72 -39 97.5 -90t29.5 -125q8 -154 12 -317.5t4 -321.5q0 -195 -1 -312.5t-9 -260.5q-2 -63 -46 -133t-93 -95v-18zM369 854q33 0 82 -1t73 -3q53 -2 60 -2q119 0 208 -36t145 -98.5t83 -139t27 -162.5 q0 -66 -20.5 -128.5t-74.5 -107.5q-45 -39 -117.5 -61.5t-154.5 -22.5q-182 0 -243.5 37t-61.5 147q0 121 -4 338q-2 160 -2 240zM375 1296q0 80 4 154q0 10 2 43q2 74 16 104q12 2 39 5q68 6 107 6q57 0 109.5 -13.5t96.5 -47.5t70.5 -92t26.5 -144q0 -96 -22.5 -167 t-60.5 -114t-83 -62.5t-92 -19.5q-23 0 -88 2q-88 4 -119 4q0 70 -4 185q-2 106 -2 157z" />
<glyph unicode="C" horiz-adv-x="1640" d="M41 844q0 -176 66.5 -334t185.5 -277.5t276.5 -186t331.5 -66.5q162 0 291 25.5t254 86.5q53 27 76 78q4 10 22 45q29 59 42 91t13 44t-12 12q-4 0 -28 -30q-31 -41 -52 -62q-47 -45 -114.5 -79.5t-145.5 -56t-153.5 -32t-141.5 -10.5q-137 0 -264 64.5t-224 179.5 t-152.5 260t-55.5 301t50 291t144.5 234.5t228.5 153.5t298 54q195 0 334 -69q57 -29 93 -67t71 -87q25 -37 32 -37q14 0 15 35q0 25 -4 80q-6 68 -7 96q0 45 -3 70.5t-13 25.5q-8 0 -20 -6q-18 -6 -31 -6q-41 0 -123 18l-33 7q-96 18 -187 29.5t-165 11.5 q-195 0 -360.5 -70t-285.5 -192.5t-184.5 -284.5t-64.5 -340z" />
<glyph unicode="D" horiz-adv-x="1792" d="M41 1686q160 -109 166 -224q8 -154 12 -317.5t4 -321.5q0 -268 -2 -473v-114q-2 -59 -51 -123t-104 -90v-19q47 4 118.5 7t126.5 3q72 0 230 -10q156 -10 225 -10q219 2 401.5 71.5t313.5 196.5t200.5 298t69.5 372q0 172 -68.5 316.5t-189.5 246.5t-281.5 156.5 t-341.5 54.5q-86 0 -152 -3l-151 -7q-80 -6 -133 -8t-127 -2q-51 0 -132 4t-134 8v-12zM403 829q0 313 3 410q0 82 2 127l4 88q0 10 2 29q2 53 6 80q41 27 157.5 35t292.5 8q143 0 265 -43t208 -138q92 -100 144.5 -254.5t52.5 -316.5q0 -154 -52 -291t-144.5 -240.5 t-214 -162t-259.5 -58.5q-176 0 -282.5 16.5t-163.5 61.5q-4 20 -4 35q-17 327 -17 614z" />
<glyph unicode="E" horiz-adv-x="1298" d="M41 1706l4 -23q80 -41 117 -98t41 -121q8 -154 12 -317.5t4 -321.5v-290q0 -102 -4 -261q0 -31 -14.5 -67.5t-37 -72.5t-49 -62.5t-51.5 -38.5v-33l19 2l130 10q54 4 95 4h185q98 -2 227 -2h309q68 0 90.5 20.5t32.5 57.5v4q10 41 59 127q25 43 36 66.5t11 42.5 q0 18 -18 18q-10 0 -55 -53q-70 -86 -121 -129q-57 -45 -125 -58.5t-162 -13.5q-61 0 -120.5 7.5t-113 27t-89 55t-37.5 90.5q-8 174 -12.5 292t-4.5 263v7q231 0 336 -9q82 -6 146.5 -30.5t93.5 -81.5h14q-4 59 -4 80v75q0 33 2 58.5t6 58.5q4 29 6 58h-14 q-45 -68 -101.5 -91.5t-129.5 -27.5h-39q-23 -2 -41 -2q-37 0 -133 4q-88 2 -142 2q0 240 2 340t7 184l2 37q4 76 14 109q41 2 121 8q90 8 131 8q156 0 237.5 -31t112.5 -76q6 -10 14 -28q14 -29 27 -29q12 0 12 19q0 29 -6 79q-10 66 -10 111q0 27 -56.5 35t-144.5 8 q-68 0 -217 -10l-57 -4q-84 -4 -141.5 -6.5t-90.5 -2.5q-41 0 -123.5 6.5l-177.5 14.5z" />
<glyph unicode="F" horiz-adv-x="1120" d="M41 1714l4 -22q80 -41 117 -98.5t41 -120.5q8 -154 12 -318t4 -321q0 -158 -2 -299.5t-6 -335.5q-2 -61 -35 -108.5t-84 -74.5v-16q113 10 211 10t232 -10v16q-59 27 -89 77t-34 118q-8 143 -12.5 321.5t-4.5 339.5h37q18 -2 39 -2q25 0 72 2h71q74 0 123 -4 q80 -6 136.5 -27.5t84.5 -78.5l27 -2q-2 33 -4 59q-4 33 -4 74q0 33 2 54.5t6 51.5q4 33 6 58h-20q-39 -59 -82 -74.5t-113 -17.5q-8 -2 -26 -2h-33q-23 -2 -35 -2q-43 0 -133 4q-94 4 -143 4q0 55 -3 157v150q0 104 5 188l2 37q4 76 14 109q41 2 121 8q90 8 131 8 q156 0 237.5 -30.5t112.5 -75.5q6 -10 14 -29q14 -29 27 -29q12 0 12 19q0 29 -6 80q-10 66 -10 110q0 27 -56.5 35t-144.5 8q-68 0 -217 -10l-57 -4q-84 -4 -141.5 -6t-90.5 -2q-41 0 -123.5 6t-177.5 14z" />
<glyph unicode="G" horiz-adv-x="1685" d="M41 844q0 -176 66.5 -334t185.5 -277.5t276.5 -186t331.5 -66.5q137 0 249 18t216 59l74 25q61 18 86 31q10 6 15 27.5t5 39.5q0 137 1 212t7 171l2 27q4 84 19.5 136t66.5 79l3 14q-33 -2 -82 -6q-74 -8 -113 -8q-84 0 -219 12v-14q72 -47 92 -91t27 -141q4 -57 6 -194 q2 -43 2 -66v-2q-2 -55 -11.5 -88t-41.5 -45q-121 -45 -215.5 -71.5t-163.5 -26.5q-137 0 -260 66.5t-215.5 183t-143.5 265t-51 304.5t50 291t144.5 234.5t228.5 153.5t298 54q176 0 323 -74q57 -29 97.5 -72.5t79.5 -101.5q29 -43 36 -43q6 0 10.5 23.5t4.5 42.5 q0 20 -2 74q-4 59 -4 90q0 20 2 47v20q0 14 -8 15q-4 0 -21 -2q-29 -4 -57 -4q-31 0 -86 24q-43 16 -64 21q-96 18 -187 29.5t-165 11.5q-195 0 -360.5 -70t-285.5 -192.5t-184.5 -284.5t-64.5 -340z" />
<glyph unicode="H" horiz-adv-x="1697" d="M41 1690q70 -47 92.5 -100.5t26.5 -131.5q8 -154 12 -317.5t4 -321.5q0 -414 -4 -620q-2 -61 -35 -108.5t-84 -74.5v-16q113 10 211 10t232 -10v16q-59 27 -89 77t-34 118q-16 328 -17 614v15q219 8 500 8q266 0 481 -8v-19q0 -414 -4 -620q-2 -61 -34.5 -108.5 t-84.5 -74.5v-16q113 10 211 10t232 -10v16q-59 27 -89 77t-34 118q-16 328 -16 614q0 313 2 410q0 82 2 127l4 88q6 82 30.5 146.5t81.5 93.5v14q-27 -2 -75 -4q-92 -8 -142 -8q-84 0 -219 12v-14q70 -47 92.5 -100.5t26.5 -131.5q14 -272 16 -518q-213 -8 -481 -8 q-223 0 -500 10q0 231 2 328.5t7 177.5q6 82 30.5 146.5t81.5 93.5v14q-27 -2 -76 -4q-92 -8 -141 -8q-84 0 -219 12v-14z" />
<glyph unicode="I" horiz-adv-x="536" d="M41 1690q68 -45 91.5 -101.5t27.5 -130.5q8 -154 12 -317.5t4 -321.5q0 -414 -4 -620q-2 -61 -35 -108.5t-84 -74.5v-16q113 10 211 10t232 -10v16q-59 27 -89 77t-34 118q-16 328 -17 614q0 313 2 410q0 82 2 127l5 88q6 82 30.5 146.5t81.5 93.5v14q-27 -2 -76 -4 q-92 -8 -141 -8q-84 0 -219 12v-14z" />
<glyph unicode="J" horiz-adv-x="534" d="M-172 -264q0 -10 13.5 -14.5t29.5 -4.5q43 0 86 14.5t106 45.5q84 39 147.5 91t100.5 132q49 106 62.5 258t13.5 401v302v217q0 195 6 288q6 92 25.5 153.5t75.5 90.5v14q-29 -2 -88 -8q-76 -8 -117 -8q-51 0 -124 5l-130 9v-16q74 -49 111.5 -109.5t41.5 -121.5 q8 -154 12.5 -317t4.5 -318v-170q0 -98 -2 -184.5t-10.5 -177.5t-23.5 -173t-40 -145q-37 -96 -100.5 -141.5t-182.5 -94.5l-6 -2q-12 -4 -12 -16z" />
<glyph unicode="K" horiz-adv-x="1640" d="M41 1694q68 -45 91.5 -101.5t27.5 -130.5q8 -154 12 -317.5t4 -321.5q0 -414 -4 -620q-2 -61 -35 -108.5t-84 -74.5v-16q113 10 211 10t232 -10v16q-59 27 -89 77t-34 118q-14 297 -17 533l80 90l10 10q70 -70 138 -152l164 -204l79 -105l68 -86q63 -86 106 -134 t96.5 -90t122 -66.5t152.5 -24.5q88 0 157.5 25.5t69.5 39.5q0 8 -3 12.5t-15 4.5t-31 -7q-27 -10 -61 -10q-106 0 -217 104.5t-285 325.5l-133 164l-161 200l-113 150l38 41l220 238l182 188q84 84 168 147.5t168 92.5l12 14q-16 0 -84 -6q-102 -6 -145 -6q-84 0 -207 12 l-12 -14q14 -33 14 -60q0 -43 -22.5 -94t-59.5 -100q-96 -125 -227 -269.5t-269 -279.5q0 254 2 361.5t7 193.5q6 82 30.5 146.5t81.5 93.5v14q-27 -2 -76 -4q-92 -8 -141 -8q-84 0 -219 12v-14z" />
<glyph unicode="L" horiz-adv-x="1216" d="M41 20l2 -22q63 6 124.5 10t111.5 4q82 0 206 -6q68 -4 124.5 -6t125.5 -2q57 0 185 8q72 4 79 4q33 2 53.5 25.5t28.5 58.5q10 37 49 127q23 47 34.5 78t11.5 51q0 10 -3.5 18.5t-11.5 8.5q-14 0 -47 -58q-29 -47 -54.5 -80.5t-60.5 -62.5q-57 -47 -148 -70.5 t-173 -23.5q-57 0 -107.5 9t-90.5 29.5t-65.5 58.5t-27.5 93q-8 174 -12 292t-4 263q0 313 2 410q0 82 2 127l4 88q6 82 30.5 146.5t82.5 93.5v14q-27 -2 -76 -4q-92 -8 -142 -8q-84 0 -219 12v-14q68 -45 91.5 -101.5t27.5 -130.5q8 -154 12 -317.5t4 -321.5v-291 q0 -102 -4 -260q0 -31 -13 -68.5t-34.5 -75.5t-47 -66t-50.5 -40z" />
<glyph unicode="M" horiz-adv-x="2146" d="M41 0q90 12 182 12q49 0 122 -3t110 -9l-6 16q-59 25 -86 67t-27 103q0 29 2 43l123 938l18 7l357 -742l92 -191l56 -120q26 -55 36 -74l16 -29q18 -29 27 -28q10 0 18 22l490 1176h12l141 -1038v-11q2 -4 2 -8q0 -35 -15 -53.5t-42 -34.5q-31 -18 -31 -33v-12 q121 18 242 18q113 0 225 -18v14q-68 29 -115.5 83.5t-60.5 127.5l-180 1231q0 4 -2 14v17q0 59 32.5 120.5t86.5 88.5v14q-27 -2 -66 -4q-90 -6 -135 -6l-100 -240l-459 -1087l-37 2l-608 1325q-111 0 -201 8v-14q127 -86 127 -205l-164 -1211q-12 -96 -57 -168.5 t-115 -95.5z" />
<glyph unicode="N" horiz-adv-x="1665" d="M41 1718l6 -18q66 -43 92.5 -97.5t32.5 -119.5v-15q4 -88 4 -213q0 -86 -2 -221q-2 -158 -2 -209q0 -414 -4 -620q-2 -61 -35 -108.5t-84 -73.5v-17q23 2 35 4l47 3q16 1 59 1q98 0 232 -10v16q-59 27 -89 77t-34 118q-16 328 -16 614v134q-2 98 -2 149q0 125 4 217h12 l1130 -1306q49 -59 62 -60q18 0 18 39q0 14 -2 64q-2 16 -2 34q-4 88 -4 236q0 94 2 272q2 162 2 221q0 313 2 410q0 82 2 127l4 88q6 82 31 146.5t82 93.5v14q-27 -2 -76 -4q-92 -8 -141 -8q-27 0 -80 10q-39 6 -59 8v-16q68 -45 86 -97.5t22 -134.5q8 -154 12.5 -317.5 t4.5 -321.5q0 -305 -2 -458h-17l-1128 1333q-45 2 -90 6z" />
<glyph unicode="O" horiz-adv-x="1802" d="M41 844q0 -176 66.5 -334t185.5 -277.5t276.5 -186t331.5 -66.5q176 0 334 63t275.5 180t184 278t66.5 347q0 180 -57 336.5t-168 275.5t-272.5 184.5t-362.5 65.5q-176 0 -332.5 -66.5t-275.5 -187.5t-185.5 -278.5t-66.5 -333.5zM256 897q0 156 47 288t134 226 t206 145.5t258 51.5q141 0 263 -56.5t211 -166t139.5 -265t50.5 -348.5q0 -156 -49.5 -284t-140.5 -219t-212 -139t-262 -48q-137 0 -256 65.5t-206 182t-135 263t-48 304.5z" />
<glyph unicode="P" horiz-adv-x="1208" d="M41 0q47 4 114.5 7t123.5 3q98 0 231 -10v16q-63 29 -90 70t-33 125q-16 233 -16 614q0 313 2 410q0 82 2 127l4 88q0 10 2 43q2 74 16 104q12 2 39 5q68 6 107 6q72 0 140.5 -14.5t119.5 -49.5q74 -49 117 -128t43 -163q0 -102 -21.5 -185t-73.5 -138q-53 -57 -137 -89 t-166 -34q-27 0 -84 12q-57 10 -84 10q-12 0 -12 -20q0 -16 19.5 -28.5t50 -19.5t62.5 -10t56 -3q113 0 202 16t169 72q94 66 158.5 177t64.5 226q0 109 -53 213t-151 164q-61 39 -149.5 60.5t-158.5 21.5q-59 0 -178 -8q-133 -10 -203 -11q-49 0 -108.5 3.5t-118.5 9.5v-19 q72 -39 97.5 -90t29.5 -125q8 -154 12 -317.5t4 -321.5q0 -414 -4 -620q-2 -57 -44 -103.5t-101 -77.5v-18z" />
<glyph unicode="Q" horiz-adv-x="1853" d="M41 823q0 -182 66.5 -331.5t184.5 -258t273.5 -169t333.5 -70.5q143 -8 265 -56.5t288 -138.5q262 -141 473 -218t447 -77q158 0 314.5 61.5t281.5 174.5q23 18 22 29q0 4 -6 4q-10 0 -29 -15q-74 -59 -158.5 -85.5t-183.5 -26.5q-236 0 -456 62.5t-541 187.5 q-264 102 -395 143q125 41 230 114.5t182 178t119 233.5t42 277q0 172 -58.5 328.5t-172 276.5t-275.5 188.5t-362 68.5q-174 0 -335 -68.5t-285 -192.5t-194.5 -284t-70.5 -336zM256 877q0 158 47 290.5t134 229t211 149.5t274 53q137 0 257.5 -51t213 -152.5t143.5 -249 t51 -331.5q0 -164 -45 -298t-131 -228t-205 -144.5t-264 -50.5q-147 0 -274 59.5t-219.5 166t-142.5 250t-50 307.5z" />
<glyph unicode="R" horiz-adv-x="1742" d="M41 -2q47 4 114.5 7t123.5 3q98 0 231 -10v16q-63 29 -90 70t-33 125q-16 244 -16 549q27 0 78 6q55 4 75 4h109q55 -61 102 -128l123 -183q84 -129 144.5 -211t135 -155t168 -115t205.5 -42q23 0 55.5 6.5t63.5 17.5t51.5 25.5t20.5 28.5q0 12 -14 13q-18 0 -48 -2 q-29 -4 -47 -5q-86 0 -171 57.5t-163.5 150.5t-146.5 193.5t-158 248.5q-59 98 -82 131q49 14 97 45q92 63 145 168.5t53 224.5q0 111 -50 216.5t-148 164.5q-61 37 -151.5 57.5t-162.5 20.5q-59 0 -178 -8q-133 -10 -203 -11q-49 0 -108.5 3t-118.5 10v-19q72 -39 97.5 -90 t29.5 -125q8 -154 12 -317.5t4 -321.5q0 -414 -4 -620q-2 -57 -44 -103.5t-101 -77.5v-18zM371 858q0 297 2 387q0 76 2 119l4 84q0 10 2 43q2 74 16 104q12 2 39 4q68 6 107 7q84 0 150.5 -10.5t115.5 -43.5q72 -49 113 -132t41 -169q0 -205 -88.5 -298t-311.5 -93h-82 q-75 -2 -110 -2z" />
<glyph unicode="S" horiz-adv-x="1021" d="M41 338q0 -33 4 -69t10 -74l2 -17q0 -55 12.5 -86t49.5 -41q2 0 53 -14q88 -27 147.5 -39t129.5 -12q131 0 231 40t166.5 108.5t99.5 155.5t33 181q-2 84 -35 156.5t-87 133t-115.5 109t-155.5 115.5l-137 101q-49 38 -94.5 86.5t-71 101.5t-25.5 112q0 45 22.5 87.5 t59.5 75t83 51t91 18.5q70 0 148.5 -23.5t134.5 -72.5q18 -16 34.5 -41t34.5 -62q35 -66 49 -65q6 0 11.5 12t5.5 23q0 47 -8 139q-10 96 -11 149q0 18 -12 19q-23 0 -53 -13q-27 -10 -45 -10q-43 0 -131 19q-90 16 -133 16q-109 0 -193 -37t-138 -99.5t-81 -138t-27 -155.5 q0 -78 30 -143.5t80 -119.5t107.5 -98.5t147.5 -105.5q84 -57 139 -99t102.5 -93.5t75 -110.5t27.5 -129q0 -72 -29.5 -128t-78 -94t-105.5 -57.5t-111 -19.5q-72 0 -171 44t-148 103q-27 33 -43.5 69t-30.5 79q-12 35 -16 35q-16 0 -25.5 -23.5t-9.5 -48.5z" />
<glyph unicode="T" horiz-adv-x="1556" d="M41 1446q0 -12 14 -12q16 0 54 34l26 23q33 27 74 46t74 26q92 20 185 25t224 5l2 -112q4 -152 4 -299v-365q0 -414 -4 -620q-2 -61 -34.5 -108.5t-84.5 -74.5v-16q113 10 211 10t232 -10v16q-59 27 -89 77t-34 118q-16 328 -16 614v135q-2 74 -2 150q0 211 10 340 l10 145q158 0 301 -2h64q31 -2 62.5 -19.5t37.5 -45.5q4 -14 6 -47q2 -41 10 -41q6 0 14.5 5t10.5 17q8 41 57 135q25 47 38 79t18 59h-17l-31 -11q-61 -25 -108 -26l-172 -4q-240 -8 -352 -9q-338 0 -508 3q-90 2 -121 36h-25q-8 -31 -43 -104l-16 -31q-8 -20 -41 -65 q-39 -56 -41 -76z" />
<glyph unicode="U" horiz-adv-x="1523" d="M41 1686q68 -45 91.5 -101.5t27.5 -130.5q4 -80 4 -186q0 -90 -2 -238q-4 -162 -4 -221q0 -43 4 -176q2 -129 2 -146q2 -166 57 -270t140 -155.5t182.5 -68t212.5 -16.5q154 0 256 19.5t181 84t123 201t44 361.5q0 16 2 90v90q0 203 1 349.5t7 275.5q4 109 26.5 158 t86.5 82v14q-27 -2 -76 -4q-92 -8 -141 -8q-29 0 -90 6q-43 4 -66 4v-14q80 -45 104.5 -92.5t28.5 -139.5q4 -109 4 -256v-197q-2 -106 -2 -186t-2 -170v-72q-4 -158 -36.5 -257t-90 -150t-139.5 -69.5t-201 -18.5q-86 0 -155.5 15.5t-126 61.5t-92 136t-40.5 233 q-4 106 -5 170t-1 127q0 313 2 410q0 82 2 127l5 88q6 82 30.5 146.5t81.5 93.5v14q-27 -2 -76 -4q-92 -8 -141 -8q-84 0 -219 12v-14z" />
<glyph unicode="V" horiz-adv-x="1779" d="M41 1700l4 -17q80 -41 115 -88t67 -120l6 -17q2 -2 17 -37l158 -354q61 -139 108 -258l67 -155l81 -183l127 -292l73 -177q12 -31 29 -31q14 0 25 23l119 297l120 282l105 248l53 131l111 278q46 112 96 216q41 84 91 147.5t120 92.5l6 14q-27 -2 -78 -4q-96 -8 -145 -8 q-86 0 -213 12l-7 -14q55 -12 78 -42t23 -75q0 -33 -9.5 -68t-21.5 -67l-57 -164l-108 -297l-83 -217l-43 -109l-133 -328h-20q-12 31 -39 91l-174 409l-19 43l-124 313l-103 269q-23 63 -23 127q0 76 47 106l-8 17q-143 -8 -217 -8q-57 0 -184 10q-12 2 -37 4z" />
<glyph unicode="W" horiz-adv-x="2422" d="M41 1710l4 -16q80 -41 116 -88t66 -119l9 -19l146 -326l142 -327q33 -78 121 -272l147 -333q52 -120 85 -204q12 -31 28 -31t27 23l131 321l131 306q4 10 14 32l39 -88l156 -348q53 -123 90 -217q12 -31 29 -31q16 0 26 23l132 322l126 296l90 211l135 321l132 308 q35 78 88 144.5t125 95.5l6 14q-29 -2 -80 -4q-104 -8 -148 -8q-82 0 -217 12l-6 -14q57 -12 81 -43t24 -76q0 -33 -9.5 -65.5t-21.5 -67.5l-92 -252l-93 -250l-69 -180l-178 -438h-21l-217 501q-4 14 -18 49q-6 10 -10 21l34 84l114 275q48 114 91 204q41 84 92.5 147.5 t120.5 92.5l6 14q-29 -2 -79 -4q-104 -8 -148 -8q-82 0 -217 12l-6 -14q57 -12 80.5 -43t23.5 -76q0 -33 -9 -65.5t-21 -67.5l-78 -209q-39 -113 -68 -186q-78 190 -156 403q-25 61 -24 125q0 78 49 109l-8 16q-152 -8 -223 -8q-63 0 -189 12q-18 0 -35 2l5 -16 q80 -41 115.5 -88.5t66.5 -118.5l8 -19l31 -69l147 -325l111 -259l4 -8q2 -6 4 -10q-2 -8 -8 -21q-4 -10 -6 -12l-179 -438h-20l-133 309l-84 192q-61 139 -125 301l-123 328q-25 61 -25 125q0 78 50 109l-9 16q-152 -8 -223 -8q-63 0 -188 12q-19 0 -35 2z" />
<glyph unicode="X" horiz-adv-x="1691" d="M41 2l35 4q125 10 186 10q63 0 201 -12l35 -2v14q-47 29 -47 95q2 43 34 104q72 131 163 277l192 294q55 -92 164 -290q109 -201 163 -293q53 -90 54 -137q0 -31 -23 -48v-16q45 4 103.5 7t111.5 3q98 0 238 -10l-11 16q-72 25 -123 74t-104 127l-381 608l-78 127 l179 248l194 262q51 70 135 135.5t166 96.5l10 14q-25 -2 -77 -4q-98 -8 -148 -8q-49 0 -107.5 3t-113.5 9v-14q25 -33 25 -70q0 -35 -17.5 -75t-48.5 -87q-6 -8 -18 -26l-242 -377l-124 211q-58 100 -101 182q-6 12 -21 37q-29 53 -45 89t-16 67q0 29 22 45l4 14 q-18 0 -65 -4q-106 -8 -158 -8q-84 0 -227 12l10 -14q84 -41 132 -92.5t97 -131.5q6 -10 15 -22q78 -117 100 -154l262 -399l-22 -33q-20 -29 -25 -35l-430 -620q-43 -61 -108.5 -108.5t-135.5 -73.5z" />
<glyph unicode="Y" horiz-adv-x="1613" d="M41 1702l10 -16q86 -45 136.5 -101.5t105.5 -138.5q20 -33 22 -35q84 -123 236 -393l147 -258q0 -375 -4 -563q-2 -61 -34.5 -108.5t-84.5 -74.5v-16q113 10 211 10t232 -10v16q-59 27 -89 77t-34 118v8q-14 307 -14 455v80q2 45 2 77l195 295l200 297q72 106 135.5 176 t140.5 103l19 14q-39 -2 -98 -12q-63 -10 -105 -10q-57 0 -135 8q-29 4 -53 6l6 -18q25 -35 24 -80q0 -35 -26.5 -89.5t-71.5 -127.5l-8 -15q-61 -106 -135 -213.5t-156 -210.5q-76 109 -205 340l-53 97l-25 43q-35 59 -55 103t-20 77q0 16 12 41.5t25 34.5l10 18 q-25 -2 -74 -8q-100 -10 -149 -10q-107 0 -240 14z" />
<glyph unicode="Z" horiz-adv-x="1751" d="M41 18q0 -23 37 -22q166 0 252 1t198 3q248 6 269 6q39 0 161.5 -2t169.5 -4q287 -6 324 -6q70 0 100.5 30.5t40.5 73.5q12 43 68 125q49 74 49 101q0 18 -16 18q-10 0 -41 -31q-57 -59 -113 -98q-47 -33 -139 -53.5t-203 -32.5t-198 -17.5t-179 -7.5q-20 -2 -33 -2 q-35 0 -106 -2q-47 -2 -74 -2q-113 0 -159 9.5t-46 29.5q0 6 13 23l1224 1482q2 2 6.5 11.5t4.5 15.5q0 20 -23 21q-8 0 -340 4q-303 2 -364 2q-43 0 -107.5 1t-183.5 3q-182 4 -241.5 5t-121.5 1q-57 0 -72.5 -10.5t-15.5 -42.5q0 -49 -12 -131q-10 -66 -10 -95 q0 -6 6 -22.5t10 -16.5q8 0 17 25q10 35 29.5 63.5t66.5 53.5q137 72 573 71q180 0 282.5 -1t162.5 -5l4 -6l-591 -729l-433 -530l-107 -131l-87 -108q-34 -42 -43 -54.5t-9 -16.5z" />
<glyph unicode="\" horiz-adv-x="563" d="M41 1647l426 -1649h55l-426 1649h-55z" />
<glyph unicode="_" horiz-adv-x="659" d="M0 -57v-41h680v41h-680z" />
<glyph unicode="`" horiz-adv-x="411" d="M41 1696l117 -160q33 -45 75.5 -73.5t85.5 -28.5q49 0 50 43q0 23 -15 49l-98 170q-18 -4 -48 -7t-54 -3q-31 0 -60.5 2t-52.5 8z" />
<glyph unicode="a" horiz-adv-x="978" d="M66 240q0 -49 23.5 -94.5t62 -79t89 -52t101.5 -18.5t116.5 27.5t127.5 68.5q14 -57 51 -78.5t88 -21.5q66 0 149 41q39 16 68 38.5t29 45.5q0 16 -6.5 30.5t-20.5 14.5q-12 0 -45 -10q-37 -12 -53 -13q-31 0 -48.5 14.5t-19.5 49.5q-14 276 -16 499v78q0 84 -17.5 133.5 t-50 73t-73.5 30.5t-103 7q-72 0 -142.5 -19.5t-129.5 -54.5q-63 -37 -100 -85t-37 -103q0 -49 69 -86q45 -25 86 -25q18 0 36.5 13.5t18.5 29.5q0 12 -6 39t-6 39q0 29 15.5 58.5t41 55t57.5 41t62 15.5q41 0 70 -39t29 -102v-180q-57 -33 -193 -82q-78 -29 -130 -52.5 t-96 -56.5t-70.5 -80t-26.5 -110zM274 283q0 61 64.5 108t185.5 109l56 28q0 -217 -2 -309q-31 -39 -71 -65.5t-79 -28.5q-74 0 -114 50.5t-40 107.5z" />
<glyph unicode="b" horiz-adv-x="1118" d="M41 1503q78 -10 106.5 -63.5t32.5 -128.5l4 -84q8 -141 10.5 -218t2.5 -192q0 -90 4 -235q4 -131 4 -211q0 -14 -2 -47v-52v-24q-2 -88 -13.5 -147.5t-56.5 -106.5l4 -17q49 4 71.5 10.5t72.5 28.5q6 4 24 19q49 31 64 49q106 -96 270 -96q88 0 169 39t141.5 109.5 t94 163.5t33.5 196q0 221 -114.5 363t-323.5 145q-154 0 -262 -91q0 111 2 234t4 216t8 168t15 89v16q-51 0 -78 -8t-56 -24q-35 -23 -65 -33q-20 -6 -70 -17q-41 -8 -63.5 -15t-32.5 -17v-19zM377 805q78 57 176 57q80 0 142.5 -35.5t102.5 -95t60.5 -134.5t20.5 -153 q0 -74 -22.5 -141t-61.5 -118.5t-86 -80t-97 -28.5q-117 0 -215 88l-4 74q-16 389 -16 567z" />
<glyph unicode="c" horiz-adv-x="976" d="M41 518q0 -111 28.5 -206t88 -166.5t154 -112.5t220.5 -41q109 0 185 30.5t155 94.5q27 20 44.5 57t19.5 72q0 23 -3 40t-13 17t-41 -35q-45 -49 -78 -73q-45 -35 -100.5 -58.5t-118.5 -23.5q-86 0 -154 38.5t-113 103t-67.5 146.5t-22.5 168q0 162 90.5 253t233.5 91 q29 0 50.5 -10t47.5 -31q6 -4 12 -10q25 -18 34 -48t9 -58q0 -25 13.5 -35t27.5 -10t39 10t49.5 27.5t41 40t16.5 45.5q0 41 -29 75.5t-74 60t-98 39t-100 13.5q-123 0 -225.5 -38t-174 -106.5t-109.5 -161t-38 -198.5z" />
<glyph unicode="d" horiz-adv-x="1208" d="M41 512q0 -102 35 -198.5t96 -170t142 -114.5t171 -41q80 0 157 30.5t140 87.5q16 -63 52 -84.5t88 -21.5q66 0 149 41q39 16 67.5 38.5t28.5 45.5q0 16 -6 30.5t-20 14.5q-12 0 -45 -10q-37 -12 -54 -13q-31 0 -48 14.5t-19 49.5q-16 328 -17 614q0 119 1.5 244t4.5 245 t9 207t14 101v16q-51 0 -77.5 -8t-55.5 -24q-35 -23 -66 -33q-20 -6 -69 -17q-41 -8 -63.5 -15t-32.5 -17v-19q78 -10 106.5 -63t32.5 -129q2 -20 6 -99q4 -111 7 -158.5t3 -111.5q-51 33 -112.5 50.5t-145.5 17.5q-223 0 -351 -140.5t-128 -359.5zM238 561q0 158 85 256 t236 98q74 0 128 -27.5t91 -78.5q0 -408 -4 -610v-6q-68 -63 -180 -64q-88 0 -155.5 37t-112.5 100.5t-66.5 139t-21.5 155.5z" />
<glyph unicode="e" horiz-adv-x="1001" d="M41 514q0 -111 28.5 -206t88 -166.5t154 -112.5t220.5 -41q109 0 185 30.5t155 94.5q31 23 55.5 63.5t26.5 73.5q0 23 -4 44t-14 21t-49 -43q-51 -55 -86 -82q-45 -35 -100.5 -58t-118.5 -23q-86 0 -154 38.5t-113 103t-67.5 146.5t-22.5 168q0 18 2 29h674q35 0 47.5 5 t12.5 26q0 106 -41 183t-104.5 124t-130.5 67.5t-120 20.5q-246 0 -385 -141.5t-139 -364.5zM246 707q0 10 2 14q63 184 272 184q102 0 158.5 -56t64.5 -130q0 -4 2 -12v-7q0 -6 -2 -8h-495q-2 5 -2 15z" />
<glyph unicode="f" horiz-adv-x="804" d="M41 885h149v-60q0 -414 -4 -620q-2 -61 -34.5 -108.5t-83.5 -73.5v-17q113 10 211 10t231 -10v17q-59 27 -89 77t-34 117q-16 328 -16 614v54h211v102h-213q0 117 6 203t23.5 152.5t51 104.5t87.5 38q18 0 26 -13.5t15 -41.5q8 -39 22 -58.5t49 -19.5q8 0 26.5 8t39 22.5 t35 34t14.5 39.5q0 14 -6 34.5t-25.5 43t-58.5 39t-99 16.5q-125 0 -203.5 -55t-117.5 -144.5t-52.5 -188.5t-13.5 -214h-147v-102z" />
<glyph unicode="g" horiz-adv-x="1060" d="M8 -391q0 -131 96.5 -175t319.5 -44q102 0 207.5 34.5t194.5 93t141.5 129t52.5 138.5q0 141 -89 206.5t-308 65.5l-269 -4q-37 0 -71.5 10.5t-34.5 42.5q0 37 31.5 63t85.5 48q14 -2 45 -2q109 0 198.5 30.5t153 86t98.5 129.5t35 155q0 92 -27 164q53 4 102.5 27.5 t49.5 69.5v100q0 35 -25 35q-16 0 -71 -27q-45 -20 -77 -31.5t-61 -11.5q-35 0 -86 31q-27 14 -38 18q-74 31 -164 31q-88 0 -169 -26.5t-143.5 -80t-99.5 -132t-37 -177.5q0 -125 53.5 -219t149.5 -139q-76 -37 -128 -93.5t-52 -121.5q0 -55 28.5 -91t96.5 -53 q-86 -70 -137.5 -143.5t-51.5 -136.5zM203 -334q0 68 33.5 121t119.5 98q49 10 108.5 13.5t141.5 3.5q131 0 193.5 -42t62.5 -114q0 -51 -38 -97t-100 -80t-135 -52.5t-143 -18.5q-113 0 -178 35t-65 133zM248 672q0 131 56 195.5t161 64.5q49 0 94 -31t79 -85t52.5 -122.5 t18.5 -142.5q0 -115 -62.5 -174.5t-169.5 -59.5q-49 0 -91 29t-73.5 80t-48 114.5t-16.5 131.5z" />
<glyph unicode="h" horiz-adv-x="1120" d="M41 1505q78 -10 106.5 -63t32.5 -129l4 -84q8 -141 10.5 -218t2.5 -192q0 -414 -4 -620q-2 -61 -35 -108.5t-84 -74.5v-16q113 10 211 10t231 -10v16q-59 27 -89 77t-34 118q-14 307 -16 551q49 45 105.5 71.5t119.5 26.5q59 0 103 -45q27 -27 41 -71t14 -105v-207 q0 -78 -4 -233q-2 -61 -35 -108.5t-84 -74.5v-16q113 10 211 10t231 -10v16q-59 27 -88.5 77t-34.5 118l-6 104l-7 170q-3 72 -3 150v106q0 96 -21.5 152.5t-58.5 82t-79 33t-105 7.5q-86 0 -162 -31t-137 -82q0 109 2 235t4 221t8 172t15 91v16q-51 0 -78 -8t-56 -24 q-35 -23 -65 -33q-20 -6 -70 -17q-41 -8 -63.5 -15t-32.5 -17v-19z" />
<glyph unicode="i" horiz-adv-x="548" d="M41 874q78 -10 109.5 -62t31.5 -126v-209q-2 -57 -2 -272q0 -61 -31.5 -112.5t-82.5 -76.5v-16q113 10 210 10q98 0 232 -10v16q-59 27 -89 77t-34 118q-12 231 -12 362q0 111 7 205t26 213v17q-51 0 -78 -8.5t-56 -24.5q-35 -23 -65 -33q-20 -6 -70 -16 q-41 -8 -63.5 -15.5t-32.5 -17.5v-19zM160 1260q0 -51 23.5 -80t84.5 -29q45 0 78 31.5t33 77.5q0 51 -23.5 79.5t-87.5 28.5q-45 0 -76.5 -31.5t-31.5 -76.5z" />
<glyph unicode="j" horiz-adv-x="532" d="M-246 -506q0 -23 31 -45q2 0 4 -2q33 -23 86 -37t96 -14q135 0 233.5 77.5t141.5 200.5q33 94 33 246q0 39 -2 117q-2 80 -2 121v55q0 96 -2 223q-2 100 -2 137q0 111 7 205t25 213v17q-51 0 -77.5 -8.5t-55.5 -24.5q-35 -23 -65 -33q-20 -6 -70 -16q-41 -8 -63.5 -15.5 t-32.5 -17.5v-19q78 -10 109.5 -62t31.5 -126v-221q-2 -61 -2 -227v-80q0 -47 4 -133q2 -104 2 -148q0 -76 -6 -134t-23.5 -104.5t-49 -73t-80.5 -26.5q-57 0 -83 27.5t-42 71.5q-10 27 -17 26q-20 0 -34.5 -11t-34.5 -36l-4 -4q-25 -29 -40.5 -57.5t-15.5 -61.5zM143 1255 q0 -51 23.5 -79.5t85.5 -28.5q45 0 77.5 31.5t32.5 76.5q0 51 -23.5 80t-86.5 29q-45 0 -77 -32t-32 -77z" />
<glyph unicode="k" horiz-adv-x="1259" d="M41 1509q78 -10 106.5 -63t32.5 -129l4 -84q8 -141 10.5 -218t2.5 -192q0 -414 -4 -620q-2 -61 -35 -108.5t-84 -74.5v-16q113 10 211 10t231 -10v16q-59 27 -89 77t-34 118q-2 18 -2 45q0 25 -2 43l80 111l246 -324q43 -57 111.5 -89t136.5 -32q55 0 153 33l6 2 q49 16 72 28.5t25 33.5q0 8 -9.5 16t-17.5 8q-14 0 -47 -4t-47 -4q-51 0 -106.5 31.5t-94.5 76.5q-82 92 -217 293l-80 113l133 186q41 57 107.5 105.5t146.5 81.5l10 20l-57 -4l-71 -3q-24 -1 -54 -1q-45 0 -74.5 2t-81.5 6q-4 0 -16 2l-4 -14q33 -8 33 -51 q0 -25 -12.5 -54.5t-34.5 -60.5l-242 -346q-6 182 -6 364q0 119 1 244t4 245t9 207t15 101v16q-51 0 -78 -8t-56 -24q-35 -23 -65 -33q-20 -6 -70 -16q-41 -8 -63.5 -15.5t-32.5 -17.5v-19z" />
<glyph unicode="l" horiz-adv-x="557" d="M41 1505q78 -10 106.5 -63t32.5 -129l4 -84q8 -141 10.5 -218t2.5 -192q0 -414 -4 -620q-2 -61 -35 -108.5t-84 -74.5v-16q113 10 211 10t231 -10v16q-59 27 -89 77t-34 118q-16 328 -16 614q0 119 1 244t4 245t9 207t15 101v16q-51 0 -78 -8t-56 -24q-35 -23 -65 -33 q-20 -6 -70 -17q-41 -8 -63.5 -15t-32.5 -17v-19z" />
<glyph unicode="m" horiz-adv-x="1591" d="M41 877h8q47 -8 70.5 -14.5t37 -24t19.5 -52t6 -98.5v-209q-2 -57 -2 -272q0 -61 -31.5 -112.5t-82.5 -76.5v-16q113 10 210 10q98 0 232 -10v16q-59 27 -89 77t-34 118q-12 231 -12 362q0 43 -4 121q-4 51 -4 78q37 41 84 64.5t112 23.5q59 0 103 -45q27 -27 41 -71 t14 -105v-207q0 -78 -4 -233q-2 -61 -35 -108.5t-84 -74.5v-16q113 10 211 10t231 -10v16q-59 27 -88.5 77t-34.5 118l-6 104l-7 170q-3 72 -3 150v106q0 37 -6 68q61 61 164 61q27 0 56.5 -12t56 -38.5t44 -73t17.5 -107.5v-207q0 -78 -4 -233q-2 -61 -35 -108.5t-84 -74.5 v-16q113 10 211 10t231 -10v16q-59 27 -88.5 77t-34.5 118l-6 104l-7 170q-3 72 -3 150v106q0 137 -78 206t-186 69q-96 0 -170 -27.5t-127 -75.5q-37 51 -93.5 77t-121.5 26q-82 0 -148.5 -24.5t-119.5 -69.5q4 45 8 73q0 27 -19 27q-4 0 -32 -16q-72 -43 -127 -62 q-18 -6 -62 -16q-39 -8 -61.5 -15.5t-32.5 -19.5v-18z" />
<glyph unicode="n" horiz-adv-x="1148" d="M41 874h8q47 -8 70.5 -14t37 -23.5t19.5 -52t6 -98.5v-209q-2 -57 -2 -272q0 -61 -31.5 -112.5t-82.5 -76.5v-16q113 10 210 10q98 0 232 -10v16q-59 27 -89 77t-34 118q-12 231 -12 362v170q23 49 97.5 89t143.5 40q76 0 125 -55t49 -178v-207q0 -78 -4 -233 q-2 -61 -34.5 -108.5t-83.5 -74.5v-16q113 10 211 10t231 -10v16q-59 27 -89 77t-34 118l-6 104l-7 170q-3 72 -3 150v106q0 143 -75 215t-210 72q-106 0 -169.5 -31.5t-127.5 -89.5l-14 -12v102q0 12 -3 18.5t-14 6.5q-4 0 -32 -16q-72 -43 -127 -62q-18 -6 -62 -16 q-39 -8 -61.5 -15.5t-32.5 -19.5v-19z" />
<glyph unicode="o" horiz-adv-x="1128" d="M41 516q0 -111 28.5 -209t88 -174t154 -119t220.5 -43q123 0 226.5 39t176.5 107.5t112.5 162t39.5 199.5t-37.5 204.5t-106.5 174.5t-160 119t-195 43q-123 0 -225.5 -38t-174 -106.5t-109.5 -161t-38 -198.5zM236 575q0 164 85 250t228 86q74 0 138.5 -44t111.5 -116.5 t73.5 -160.5t26.5 -172q0 -160 -94 -248t-240 -88q-68 0 -127 44t-105 117.5t-71.5 160.5t-25.5 171z" />
<glyph unicode="p" horiz-adv-x="1150" d="M41 893q78 -10 106.5 -63.5t32.5 -129.5l4 -84q8 -141 10.5 -217.5t2.5 -191.5q0 -414 -4 -621q-2 -61 -35 -108t-84 -74v-16q113 10 211 10t231 -10v16q-59 27 -89 77t-34 118q-14 281 -16 503q49 -49 119.5 -75.5t142.5 -26.5q92 0 177 33t151.5 98.5t104.5 162.5 t38 220q0 104 -34 198.5t-95 165t-141 109.5t-170 39q-82 0 -159 -27.5t-138 -78.5v16q0 25 8 55q2 4 2 6q0 27 -25 27q-27 0 -44 -7t-42 -22q-37 -25 -65 -34q-20 -6 -70 -17q-41 -8 -63.5 -15t-32.5 -18v-18zM373 780q84 102 231 103q49 0 103.5 -29t99.5 -80t72.5 -118.5 t27.5 -141.5q0 -80 -16.5 -150.5t-52 -127t-93 -88t-137.5 -31.5q-76 0 -133 29.5t-98 82.5q0 72 -2 260q-2 199 -2 291z" />
<glyph unicode="q" horiz-adv-x="1128" d="M41 594q0 -109 25.5 -206t80 -173t139.5 -119t199 -43q172 0 283 84q0 -367 -4 -551q-2 -61 -35 -108t-84 -74v-16q113 10 211 10t231 -10v16q-59 27 -88.5 77t-33.5 118q-16 328 -17 614q0 47 -4 203q-4 209 -4 299q0 23 2 67v62q2 59 21.5 107t52.5 102q18 33 18 39 q0 20 -26 20q-35 0 -81 -17.5t-118 -52.5l-14 -8l-4 -2q-31 -16 -39 -33q-111 76 -267 76q-90 0 -171 -34.5t-142 -100.5t-96 -155t-35 -191zM240 629q0 154 78.5 243t211.5 89q63 0 130 -37t88 -86q0 -33 2 -54q8 -141 12 -261t6 -247q-74 -94 -203 -94q-76 0 -137 39 t-103 105.5t-63.5 145.5t-21.5 157z" />
<glyph unicode="r" horiz-adv-x="825" d="M41 893q80 -10 117 -72.5t37 -134.5v-209q-2 -57 -2 -272q0 -61 -32 -112.5t-83 -76.5v-16q113 10 211 10t231 -10v16q-59 27 -89 77t-34 118q-12 231 -12 362v97q39 78 89 122t126 44q16 0 49 -15q31 -16 47 -16q12 0 20.5 11t18.5 36q6 14 10 22q4 10 15 27 q25 47 24 70q0 23 -29.5 35t-60.5 12q-90 0 -167.5 -46t-139.5 -122v133q0 14 -3 24.5t-17 10.5q-37 0 -58.5 -6t-48.5 -23q-37 -23 -70 -33q-20 -6 -67 -14q-33 -6 -52.5 -12t-29.5 -17v-20z" />
<glyph unicode="s" horiz-adv-x="737" d="M41 74q0 -23 28.5 -39.5t73.5 -27.5t94.5 -16t88.5 -5q61 0 125.5 17t119 55t89 99.5t34.5 147.5q0 61 -22.5 108.5t-60.5 81t-77.5 56t-105.5 55.5q-98 45 -145 82t-47 96q0 53 45 94.5t108 41.5q39 0 85 -14.5t83 -43.5q23 -16 57 -55q33 -35 43 -35q12 0 13 25v73v66 q0 23 -22.5 39t-56.5 27.5t-72 16.5t-70 5q-184 0 -285 -86t-101 -213q0 -63 23 -111.5t58.5 -80t73.5 -53t101 -50.5l33 -14q84 -39 127 -79t43 -104q0 -57 -53 -96t-111 -39q-57 0 -116.5 19.5t-98.5 54.5q-16 14 -43 57q-23 39 -32 39q-20 0 -21 -22q0 -23 -2 -84 q-4 -55 -4 -88z" />
<glyph unicode="t" horiz-adv-x="716" d="M41 909q0 -16 4 -16h162v-39q0 -414 -4 -621q0 -123 67.5 -181t161.5 -58q104 0 174 55t70 98q0 31 -29 31q-10 0 -41 -14q-63 -33 -106 -33q-41 0 -67.5 37t-29.5 78q-16 328 -16 614v33h174v96h-172q4 156 4 250q0 16 -5 21.5t-23 5.5q-16 0 -39 -52q-23 -49 -41 -71 q-31 -39 -74 -82t-80 -72q-14 -12 -43 -26q-25 -14 -36 -26t-11 -28z" />
<glyph unicode="u" horiz-adv-x="1204" d="M41 879q92 -2 128 -43t36 -109l-2 -371v-106q0 -137 74.5 -210t181.5 -73q100 0 179 39t136 103q10 -72 49 -96.5t95 -24.5q66 0 149 41q39 16 67.5 38.5t28.5 45.5q0 16 -6 30.5t-20 14.5q-12 0 -45 -11q-37 -12 -54 -12q-29 0 -44 14.5t-23 49.5q-10 49 -13.5 119.5 t-3.5 248.5v189q0 201 21 241v17q-51 0 -78 -8.5t-55 -24.5q-35 -23 -66 -33q-20 -6 -69 -16q-41 -8 -63.5 -15.5t-33.5 -17.5v-18q92 -2 128 -43t36 -109v-297v-110q-2 -2 -16 -27q-53 -88 -105.5 -140.5t-132.5 -52.5t-108.5 56.5t-28.5 193.5q0 195 2 330v72 q0 201 21 241v17q-51 0 -78 -8.5t-56 -24.5q-35 -23 -65 -33q-20 -6 -70 -16q-41 -8 -63.5 -15.5t-32.5 -17.5v-18z" />
<glyph unicode="v" horiz-adv-x="1236" d="M41 1008l6 -15q88 -45 135 -101t84 -130l158 -338l133 -301l74 -176l20 2l328 803q41 84 91 147.5t120 91.5l6 15q-27 -2 -78 -5q-96 -8 -145 -8q-86 0 -213 13l-6 -15q55 -12 77.5 -41.5t22.5 -75.5q0 -33 -9 -67.5t-22 -67.5l-84 -235l-75 -213l-101 238l-88 225 q-33 84 -33 145q0 68 41 94l-6 15q-25 -2 -74 -4q-90 -8 -137 -9q-82 1 -225 13z" />
<glyph unicode="w" horiz-adv-x="1792" d="M41 1012l6 -15q88 -45 135 -101t84 -130l158 -338l133 -301l74 -176l20 2l256 627l106 -229l99 -230l74 -176l20 2l328 803q41 84 91 147.5t120 91.5l6 15q-27 -2 -78 -5q-96 -8 -145 -8q-86 0 -213 13l-6 -15q55 -12 77.5 -41.5t22.5 -75.5q0 -33 -9 -67.5t-22 -67.5 l-84 -235l-75 -213l-101 238l-88 225q-10 25 -20 63q14 68 61 110t119 70l6 15q-51 0 -182 -6q-156 -6 -238 -7q-104 0 -180 9l6 -15q88 -45 135 -101t84 -130l4 -10l-2 -7l-84 -235l-75 -213l-101 239l-88 224q-33 84 -33 145q0 68 41 94l-6 15q-25 -2 -74 -4 q-90 -8 -137 -9q-82 1 -225 13z" />
<glyph unicode="x" horiz-adv-x="1224" d="M41 2q113 10 188 10q80 0 158 -10l14 16q-18 20 -18 72q0 31 53 111l148 213l141 -213q41 -59 41 -111q0 -43 -35 -72l10 -16q106 10 205 10q98 0 238 -10l-10 16q-76 27 -149 84.5t-107 110.5l-230 350l135 195q49 70 108.5 126t149.5 103l9 14q-119 -12 -181 -12 q-37 0 -104 6q-45 6 -60 6l-8 -14q10 -12 11 -53q0 -33 -26 -80t-67 -104l-47 -68l-45 70q-35 51 -55.5 100t-20.5 88q0 33 23 51l-8 15q-25 -2 -74 -5q-90 -8 -137 -8q-82 0 -225 13l8 -15q102 -47 166.5 -103.5t111.5 -127.5l154 -230l-219 -317q-37 -53 -102.5 -109.5 t-131.5 -85.5z" />
<glyph unicode="y" horiz-adv-x="1224" d="M-43 -389q0 -41 53 -67.5t103 -26.5q172 0 325.5 159.5t286.5 485.5l242 592q33 78 87 144.5t124 94.5l6 15q-27 -2 -78 -4q-96 -8 -145 -9q-86 0 -213 13l-7 -15q55 -12 78 -41.5t23 -74.5q0 -33 -9.5 -68t-21.5 -68l-84 -235l-76 -213l-100 238l-88 225q-33 84 -33 145 q0 68 41 94l-6 15q-25 -2 -74 -4q-90 -8 -137 -9q-82 0 -225 13l6 -15q90 -47 139 -103t80 -128l299 -672q-33 -66 -75 -133.5t-91 -124.5t-100 -91t-97 -34q-55 0 -77.5 16.5t-34.5 43.5q-6 14 -12 14q-14 0 -25.5 -10.5t-26.5 -28.5l-6 -10q-23 -33 -37 -63.5t-14 -59.5z " />
<glyph unicode="z" horiz-adv-x="917" d="M41 23q0 -23 31 -23h624q98 0 129 82l13 35q39 104 39 149q0 6 -5.5 16.5t-11.5 10.5t-41 -35q-57 -57 -96 -84q-43 -29 -91 -48.5t-87 -19.5l-252 -4l545 879q0 29 -27 29h-713q-16 0 -29.5 -17.5t-13.5 -36.5v-178q0 -35 17 -35q12 0 32 37q29 51 67 83t110 32h270 l-504 -850q-6 -12 -6 -22z" />
<glyph unicode="&#xa3;" horiz-adv-x="1275" d="M41 0l18 2l130 10q54 4 96 4h184q98 -2 227 -2h310q68 0 90 20.5t32 57.5v4q10 41 60 127q25 43 36 66.5t11 42.5q0 18 -18 18q-10 0 -56 -53q-70 -86 -121 -129q-57 -45 -124.5 -58.5t-161.5 -13.5q-61 0 -121 7.5t-113 27t-89 55t-38 90.5q-8 174 -12 292t-4 263v7 q231 0 336 -9q82 -6 146.5 -30.5t92.5 -81.5h15q-4 59 -4 80v75q0 33 2 58.5t6 58.5q4 29 6 58h-14q-45 -68 -101.5 -91.5t-130.5 -27.5h-39q-23 -2 -41 -2q-37 0 -133 4q-88 2 -141 2v37q2 31 2 37q0 47 -2 122q-4 88 -4 121q0 84 10 148.5t40 115t86 78t144 27.5 q156 0 238 -31t113 -76q6 -10 14 -28q14 -29 26 -29t13 19q0 29 -6 79q-10 66 -11 111q0 27 -56 35t-144 8q-68 0 -217 -10l-58 -4q-121 -8 -198.5 -39t-119.5 -80t-58.5 -116.5t-16.5 -158.5q0 -63 12 -206q12 -172 13 -267v-290q0 -102 -4 -261q0 -31 -14.5 -67.5 t-37 -72.5t-49 -62.5t-51.5 -38.5v-33z" />
<glyph unicode="&#xad;" horiz-adv-x="774" d="M41 573h692v105h-692v-105z" />
<glyph unicode="&#x2000;" horiz-adv-x="870" />
<glyph unicode="&#x2001;" horiz-adv-x="1740" />
<glyph unicode="&#x2002;" horiz-adv-x="870" />
<glyph unicode="&#x2003;" horiz-adv-x="1740" />
<glyph unicode="&#x2004;" horiz-adv-x="579" />
<glyph unicode="&#x2005;" horiz-adv-x="434" />
<glyph unicode="&#x2006;" horiz-adv-x="288" />
<glyph unicode="&#x2007;" horiz-adv-x="288" />
<glyph unicode="&#x2008;" horiz-adv-x="217" />
<glyph unicode="&#x2009;" horiz-adv-x="348" />
<glyph unicode="&#x200a;" horiz-adv-x="96" />
<glyph unicode="&#x2010;" horiz-adv-x="774" d="M41 573h692v105h-692v-105z" />
<glyph unicode="&#x2011;" horiz-adv-x="774" d="M41 573h692v105h-692v-105z" />
<glyph unicode="&#x2012;" horiz-adv-x="774" d="M41 573h692v105h-692v-105z" />
<glyph unicode="&#x2013;" horiz-adv-x="1024" d="M41 573v105h942v-105h-942z" />
<glyph unicode="&#x2014;" horiz-adv-x="2048" d="M41 573v105h1966v-105h-1966z" />
<glyph unicode="&#x2018;" d="M41 1509q0 -92 18.5 -134t63.5 -68l55 30q-43 29 -43 64q0 18 6 47q31 -10 54 -10q51 0 78.5 40t27.5 95q0 49 -56.5 88t-113.5 39q-47 0 -68.5 -60.5t-21.5 -130.5z" />
<glyph unicode="&#x2019;" d="M41 1573q0 -55 27.5 -95t78.5 -40q23 0 54 10q6 -29 6 -47q0 -35 -43 -64l55 -30q45 27 63.5 68.5t18.5 133.5q0 70 -21.5 130.5t-68.5 60.5q-57 0 -113.5 -39t-56.5 -88z" />
<glyph unicode="&#x201c;" horiz-adv-x="659" d="M41 1509q0 -92 18.5 -134t63.5 -68l55 30q-43 29 -43 64q0 18 6 47q31 -10 54 -10q51 0 78.5 40t27.5 95q0 49 -56.5 88t-113.5 39q-47 0 -68.5 -60.5t-21.5 -130.5zM358 1507q0 -92 18.5 -134t63.5 -68l56 30q-43 29 -43 64q0 18 6 47q31 -10 53 -10q51 0 78.5 40 t27.5 95q0 49 -56 88t-113 39q-47 0 -69 -60.5t-22 -130.5z" />
<glyph unicode="&#x201d;" horiz-adv-x="665" d="M41 1573q0 -55 27.5 -95t78.5 -40q23 0 54 10q6 -29 6 -47q0 -35 -43 -64l55 -30q45 27 63.5 68.5t18.5 133.5q0 70 -21.5 130.5t-68.5 60.5q-57 0 -113.5 -39t-56.5 -88zM365 1571q0 -55 27.5 -95t78.5 -40q23 0 53 10q6 -29 6 -47q0 -35 -43 -64l56 -30 q45 27 63.5 68.5t18.5 133.5q0 70 -21.5 130.5t-68.5 60.5q-57 0 -113.5 -39t-56.5 -88z" />
<glyph unicode="&#x2026;" horiz-adv-x="1026" d="M725 135q0 -55 27.5 -95t78.5 -40q55 0 104.5 41t49.5 92q0 59 -20.5 94t-69.5 35q-57 0 -113.5 -39t-56.5 -88zM383 135q0 -55 27.5 -95t78.5 -40q55 0 104.5 41t49.5 92q0 59 -20.5 94t-69.5 35q-57 0 -113.5 -39t-56.5 -88zM41 135q0 -55 27.5 -95t78.5 -40 q55 0 104.5 41t49.5 92q0 59 -20.5 94t-69.5 35q-57 0 -113.5 -39t-56.5 -88z" />
<glyph unicode="&#x202f;" horiz-adv-x="348" />
<glyph unicode="&#x205f;" horiz-adv-x="434" />
<glyph unicode="&#x2122;" horiz-adv-x="3702" d="M1597 0q90 12 182 12q49 0 122 -3t110 -9l-6 16q-59 25 -86 67t-27 103q0 29 2 43l123 938l18 7l357 -742l92 -191l56 -120q26 -55 36 -74l16 -29q18 -29 27 -28q10 0 18 22l490 1176h12l141 -1038v-11q2 -4 2 -8q0 -35 -15 -53.5t-42 -34.5q-31 -18 -31 -33v-12 q121 18 242 18q113 0 225 -18v14q-68 29 -115.5 83.5t-60.5 127.5l-180 1231q0 4 -2 14v17q0 59 32.5 120.5t86.5 88.5v14q-27 -2 -66 -4q-90 -6 -135 -6l-100 -240l-459 -1087l-37 2l-608 1325q-111 0 -201 8v-14q127 -86 127 -205l-164 -1211q-12 -96 -57 -168.5 t-115 -95.5zM41 1446q0 -12 14 -12q16 0 54 34l26 23q33 27 74 46t74 26q92 20 185 25t224 5l2 -112q4 -152 4 -299v-365q0 -414 -4 -620q-2 -61 -34.5 -108.5t-84.5 -74.5v-16q113 10 211 10t232 -10v16q-59 27 -89 77t-34 118q-16 328 -16 614v135q-2 74 -2 150 q0 211 10 340l10 145q158 0 301 -2h64q31 -2 62.5 -19.5t37.5 -45.5q4 -14 6 -47q2 -41 10 -41q6 0 14.5 5t10.5 17q8 41 57 135q25 47 38 79t18 59h-17l-31 -11q-61 -25 -108 -26l-172 -4q-240 -8 -352 -9q-338 0 -508 3q-90 2 -121 36h-25q-8 -31 -43 -104l-16 -31 q-8 -20 -41 -65q-39 -56 -41 -76z" />
<glyph unicode="&#xe000;" horiz-adv-x="1004" d="M0 1005h1005v-1005h-1005v1005z" />
<glyph unicode="&#xfb01;" horiz-adv-x="1353" d="M846 874q78 -10 109.5 -62t31.5 -126v-209q-2 -57 -2 -272q0 -61 -31.5 -112.5t-82.5 -76.5v-16q113 10 210 10q98 0 232 -10v16q-59 27 -89 77t-34 118q-12 231 -12 362q0 111 7 205t26 213v17q-51 0 -78 -8.5t-56 -24.5q-35 -23 -65 -33q-20 -6 -70 -16 q-41 -8 -63.5 -15.5t-32.5 -17.5v-19zM965 1260q0 -51 23.5 -80t84.5 -29q45 0 78 31.5t33 77.5q0 51 -23.5 79.5t-87.5 28.5q-45 0 -76.5 -31.5t-31.5 -76.5zM41 885h149v-60q0 -414 -4 -620q-2 -61 -34.5 -108.5t-83.5 -73.5v-17q113 10 211 10t231 -10v17q-59 27 -89 77 t-34 117q-16 328 -16 614v54h211v102h-213q0 117 6 203t23.5 152.5t51 104.5t87.5 38q18 0 26 -13.5t15 -41.5q8 -39 22 -58.5t49 -19.5q8 0 26.5 8t39 22.5t35 34t14.5 39.5q0 14 -6 34.5t-25.5 43t-58.5 39t-99 16.5q-125 0 -203.5 -55t-117.5 -144.5t-52.5 -188.5 t-13.5 -214h-147v-102z" />
<glyph unicode="&#xfb02;" horiz-adv-x="1361" d="M846 1505q78 -10 106.5 -63t32.5 -129l4 -84q8 -141 10.5 -218t2.5 -192q0 -414 -4 -620q-2 -61 -35 -108.5t-84 -74.5v-16q113 10 211 10t231 -10v16q-59 27 -89 77t-34 118q-16 328 -16 614q0 119 1 244t4 245t9 207t15 101v16q-51 0 -78 -8t-56 -24q-35 -23 -65 -33 q-20 -6 -70 -17q-41 -8 -63.5 -15t-32.5 -17v-19zM41 885h149v-60q0 -414 -4 -620q-2 -61 -34.5 -108.5t-83.5 -73.5v-17q113 10 211 10t231 -10v17q-59 27 -89 77t-34 117q-16 328 -16 614v54h211v102h-213q0 117 6 203t23.5 152.5t51 104.5t87.5 38q18 0 26 -13.5 t15 -41.5q8 -39 22 -58.5t49 -19.5q8 0 26.5 8t39 22.5t35 34t14.5 39.5q0 14 -6 34.5t-25.5 43t-58.5 39t-99 16.5q-125 0 -203.5 -55t-117.5 -144.5t-52.5 -188.5t-13.5 -214h-147v-102z" />
<glyph unicode="&#xfb03;" horiz-adv-x="2158" d="M1651 874q78 -10 109.5 -62t31.5 -126v-209q-2 -57 -2 -272q0 -61 -31.5 -112.5t-82.5 -76.5v-16q113 10 210 10q98 0 232 -10v16q-59 27 -89 77t-34 118q-12 231 -12 362q0 111 7 205t26 213v17q-51 0 -78 -8.5t-56 -24.5q-35 -23 -65 -33q-20 -6 -70 -16 q-41 -8 -63.5 -15.5t-32.5 -17.5v-19zM1770 1260q0 -51 23.5 -80t84.5 -29q45 0 78 31.5t33 77.5q0 51 -23.5 79.5t-87.5 28.5q-45 0 -76.5 -31.5t-31.5 -76.5zM846 885h149v-60q0 -414 -4 -620q-2 -61 -34.5 -108.5t-83.5 -73.5v-17q113 10 211 10t231 -10v17 q-59 27 -89 77t-34 117q-16 328 -16 614v54h211v102h-213q0 117 6 203t23.5 152.5t51 104.5t87.5 38q18 0 26 -13.5t15 -41.5q8 -39 22 -58.5t49 -19.5q8 0 26.5 8t39 22.5t35 34t14.5 39.5q0 14 -6 34.5t-25.5 43t-58.5 39t-99 16.5q-125 0 -203.5 -55t-117.5 -144.5 t-52.5 -188.5t-13.5 -214h-147v-102zM41 885h149v-60q0 -414 -4 -620q-2 -61 -34.5 -108.5t-83.5 -73.5v-17q113 10 211 10t231 -10v17q-59 27 -89 77t-34 117q-16 328 -16 614v54h211v102h-213q0 117 6 203t23.5 152.5t51 104.5t87.5 38q18 0 26 -13.5t15 -41.5 q8 -39 22 -58.5t49 -19.5q8 0 26.5 8t39 22.5t35 34t14.5 39.5q0 14 -6 34.5t-25.5 43t-58.5 39t-99 16.5q-125 0 -203.5 -55t-117.5 -144.5t-52.5 -188.5t-13.5 -214h-147v-102z" />
<glyph unicode="&#xfb04;" horiz-adv-x="2166" d="M1651 1505q78 -10 106.5 -63t32.5 -129l4 -84q8 -141 10.5 -218t2.5 -192q0 -414 -4 -620q-2 -61 -35 -108.5t-84 -74.5v-16q113 10 211 10t231 -10v16q-59 27 -89 77t-34 118q-16 328 -16 614q0 119 1 244t4 245t9 207t15 101v16q-51 0 -78 -8t-56 -24q-35 -23 -65 -33 q-20 -6 -70 -17q-41 -8 -63.5 -15t-32.5 -17v-19zM846 885h149v-60q0 -414 -4 -620q-2 -61 -34.5 -108.5t-83.5 -73.5v-17q113 10 211 10t231 -10v17q-59 27 -89 77t-34 117q-16 328 -16 614v54h211v102h-213q0 117 6 203t23.5 152.5t51 104.5t87.5 38q18 0 26 -13.5 t15 -41.5q8 -39 22 -58.5t49 -19.5q8 0 26.5 8t39 22.5t35 34t14.5 39.5q0 14 -6 34.5t-25.5 43t-58.5 39t-99 16.5q-125 0 -203.5 -55t-117.5 -144.5t-52.5 -188.5t-13.5 -214h-147v-102zM41 885h149v-60q0 -414 -4 -620q-2 -61 -34.5 -108.5t-83.5 -73.5v-17 q113 10 211 10t231 -10v17q-59 27 -89 77t-34 117q-16 328 -16 614v54h211v102h-213q0 117 6 203t23.5 152.5t51 104.5t87.5 38q18 0 26 -13.5t15 -41.5q8 -39 22 -58.5t49 -19.5q8 0 26.5 8t39 22.5t35 34t14.5 39.5q0 14 -6 34.5t-25.5 43t-58.5 39t-99 16.5 q-125 0 -203.5 -55t-117.5 -144.5t-52.5 -188.5t-13.5 -214h-147v-102z" />
</font>
</defs>
</svg>
